<svg xmlns="http://www.w3.org/2000/svg" xmlns:xlink="http://www.w3.org/1999/xlink" width="945" zoomAndPan="magnify" viewBox="0 0 708.75 708.749996" height="945" preserveAspectRatio="xMidYMid meet" version="1.0"><defs><clipPath id="df946016a1"><path d="M 0.550781 1.542969 L 283.984375 1.542969 L 283.984375 256.988281 L 0.550781 256.988281 Z M 0.550781 1.542969 " clip-rule="nonzero"/></clipPath><clipPath id="40e6fd424a"><rect x="0" width="285" y="0" height="257"/></clipPath></defs><g transform="matrix(1, 0, 0, 1, 212, 225)"><g clip-path="url(#40e6fd424a)"><path fill="#9e1633" d="M 200.683594 143.152344 C 199.109375 143.042969 197.765625 144.269531 197.679688 145.835938 C 196.863281 160.488281 190.121094 174.300781 177.066406 188.070312 C 165.476562 200.285156 150.324219 211.007812 135.539062 220.78125 C 118.945312 212.9375 102.925781 198.964844 91.394531 182.230469 C 80.035156 165.757812 74.546875 148.558594 76.707031 136.226562 C 79.296875 121.449219 90.417969 111.59375 104.441406 111.59375 C 104.550781 111.59375 104.660156 111.59375 104.761719 111.59375 C 124.058594 111.796875 136.492188 136.300781 136.617188 136.546875 C 137.097656 137.515625 138.089844 138.125 139.171875 138.125 C 139.183594 138.125 139.195312 138.125 139.207031 138.125 C 140.300781 138.113281 141.292969 137.46875 141.753906 136.476562 C 141.851562 136.273438 151.460938 116.046875 169.992188 113.25 C 181.113281 111.574219 191.636719 117.679688 195.585938 128.109375 C 196.144531 129.578125 197.789062 130.320312 199.265625 129.761719 C 200.734375 129.203125 201.476562 127.554688 200.917969 126.085938 C 196.003906 113.125 182.9375 105.539062 169.140625 107.613281 C 153.332031 109.996094 143.453125 122.566406 139.125 129.503906 C 137.5 126.945312 135.140625 123.574219 132.101562 120.191406 C 123.796875 110.9375 114.367188 105.988281 104.828125 105.886719 C 104.703125 105.886719 104.585938 105.886719 104.460938 105.886719 C 87.824219 105.886719 74.136719 117.902344 71.097656 135.238281 C 68.648438 149.21875 74.335938 167.523438 86.707031 185.464844 C 99.140625 203.5 116.609375 218.507812 134.621094 226.628906 C 135 226.796875 135.398438 226.878906 135.789062 226.878906 C 136.339844 226.878906 136.886719 226.722656 137.359375 226.414062 C 152.847656 216.21875 168.878906 204.988281 181.210938 191.992188 C 195.234375 177.203125 202.484375 162.210938 203.378906 146.152344 C 203.460938 144.589844 202.25 143.242188 200.683594 143.152344 Z M 200.683594 143.152344 " fill-opacity="1" fill-rule="nonzero"/><g clip-path="url(#df946016a1)"><path fill="#9e1633" d="M 243.652344 39.5625 C 243.808594 34.695312 242.042969 30.09375 238.675781 26.605469 C 235.332031 23.148438 230.859375 21.238281 226.0625 21.234375 L 222.996094 21.230469 C 222.972656 20.839844 222.945312 20.503906 222.910156 20.238281 C 222.175781 13.996094 219.238281 8.480469 214.855469 5.125 C 209.828125 1.269531 203.871094 0.488281 198.511719 2.980469 C 192.234375 5.898438 188.109375 12.59375 187.742188 20.453125 C 187.730469 20.703125 187.765625 20.945312 187.8125 21.175781 L 153.53125 21.125 C 153.507812 20.785156 153.480469 20.480469 153.453125 20.238281 C 152.714844 13.996094 149.78125 8.480469 145.398438 5.125 C 140.367188 1.269531 134.410156 0.488281 129.050781 2.980469 C 122.777344 5.898438 118.648438 12.59375 118.285156 20.453125 C 118.273438 20.664062 118.289062 20.871094 118.324219 21.074219 L 84.066406 21.023438 C 84.042969 20.726562 84.023438 20.460938 83.992188 20.242188 C 83.257812 14 80.320312 8.488281 75.9375 5.128906 C 70.910156 1.277344 64.953125 0.496094 59.59375 2.984375 C 53.316406 5.90625 49.191406 12.597656 48.824219 20.460938 C 48.820312 20.636719 48.832031 20.808594 48.851562 20.972656 L 38.972656 20.957031 C 38.960938 20.957031 38.957031 20.957031 38.945312 20.957031 C 31.179688 20.957031 24.453125 26.121094 22.152344 33.292969 C 22.046875 33.460938 21.957031 33.644531 21.886719 33.84375 C -1.09375 100.503906 -5.59375 171.269531 8.875 238.488281 C 9.152344 239.78125 10.28125 240.710938 11.605469 240.738281 L 41.820312 241.308594 C 43.3125 245.949219 44.875 250.539062 46.511719 255.066406 C 46.921875 256.195312 47.992188 256.945312 49.191406 256.945312 C 49.195312 256.945312 49.195312 256.945312 49.199219 256.945312 C 49.777344 256.945312 107.316406 256.722656 164.375 256.21875 C 197.890625 255.921875 224.691406 255.578125 244.019531 255.214844 C 281.667969 254.496094 282.0625 254.050781 283.226562 252.738281 C 284.007812 251.851562 284.160156 250.574219 283.613281 249.523438 C 253.929688 193.035156 240.855469 124.355469 243.652344 39.5625 Z M 193.4375 20.714844 C 193.699219 15.070312 196.636719 10.136719 200.910156 8.144531 C 204.332031 6.554688 208.054688 7.085938 211.382812 9.644531 C 214.554688 12.074219 216.691406 16.179688 217.25 20.902344 C 217.261719 21 217.273438 21.109375 217.285156 21.222656 L 193.371094 21.1875 C 193.398438 21.035156 193.425781 20.882812 193.4375 20.714844 Z M 123.980469 20.714844 C 124.242188 15.070312 127.175781 10.136719 131.453125 8.144531 C 134.875 6.554688 138.589844 7.085938 141.925781 9.644531 C 145.09375 12.074219 147.234375 16.179688 147.792969 20.902344 C 147.796875 20.972656 147.808594 21.046875 147.8125 21.113281 L 123.925781 21.082031 C 123.949219 20.960938 123.972656 20.839844 123.980469 20.714844 Z M 54.527344 20.714844 C 54.789062 15.070312 57.722656 10.136719 62 8.144531 C 65.417969 6.554688 69.140625 7.085938 72.472656 9.644531 C 75.640625 12.074219 77.777344 16.179688 78.339844 20.902344 C 78.34375 20.9375 78.34375 20.972656 78.347656 21.007812 L 54.484375 20.972656 C 54.496094 20.886719 54.519531 20.808594 54.527344 20.714844 Z M 13.976562 235.078125 C 1.917969 177.324219 4.0625 116.96875 20.070312 58.996094 C 18.703125 89.933594 19.488281 119.699219 22.425781 147.734375 C 25.652344 178.515625 31.558594 207.972656 40.011719 235.574219 Z M 51.191406 251.242188 C 39.738281 219.109375 31.96875 184.097656 28.097656 147.144531 C 24.511719 112.964844 24.164062 76.179688 27.054688 37.789062 C 27.519531 31.542969 32.75 26.65625 38.957031 26.65625 C 38.960938 26.65625 38.96875 26.65625 38.972656 26.65625 L 78.367188 26.71875 C 77.984375 32.28125 76.492188 39.800781 72.441406 44.0625 C 70.058594 46.570312 67.0625 47.65625 63.292969 47.414062 C 61.515625 47.292969 55.664062 46.390625 54.980469 39.808594 C 54.820312 38.238281 53.417969 37.109375 51.851562 37.265625 C 50.285156 37.425781 49.148438 38.828125 49.308594 40.394531 C 50.214844 49.164062 57.199219 52.71875 62.90625 53.101562 C 63.390625 53.136719 63.871094 53.152344 64.34375 53.152344 C 69.207031 53.152344 73.316406 51.421875 76.570312 47.996094 C 81.988281 42.300781 83.675781 33.136719 84.0625 26.730469 L 147.820312 26.828125 C 147.425781 32.378906 145.925781 39.832031 141.902344 44.066406 C 139.519531 46.574219 136.519531 47.664062 132.753906 47.417969 C 130.972656 47.296875 125.125 46.398438 124.441406 39.8125 C 124.28125 38.246094 122.878906 37.117188 121.3125 37.269531 C 119.742188 37.429688 118.609375 38.832031 118.769531 40.402344 C 119.675781 49.167969 126.660156 52.726562 132.363281 53.109375 C 132.847656 53.140625 133.328125 53.160156 133.800781 53.160156 C 138.664062 53.160156 142.773438 51.425781 146.03125 48 C 151.417969 42.332031 153.117188 33.246094 153.507812 26.84375 L 217.261719 26.941406 C 216.855469 32.480469 215.351562 39.863281 211.351562 44.070312 C 208.96875 46.582031 205.96875 47.667969 202.199219 47.425781 C 200.421875 47.304688 194.574219 46.402344 193.886719 39.820312 C 193.730469 38.25 192.328125 37.121094 190.757812 37.277344 C 189.191406 37.4375 188.054688 38.839844 188.214844 40.40625 C 189.121094 49.175781 196.105469 52.730469 201.8125 53.113281 C 202.296875 53.148438 202.777344 53.164062 203.25 53.164062 C 208.113281 53.164062 212.222656 51.433594 215.476562 48.003906 C 220.835938 42.375 222.539062 33.347656 222.949219 26.953125 L 226.046875 26.957031 C 229.285156 26.964844 232.304688 28.253906 234.5625 30.589844 C 236.855469 32.960938 238.050781 36.085938 237.945312 39.398438 C 237.492188 53.128906 237.460938 66.441406 237.835938 79.367188 C 173.0625 76.363281 107.394531 76.214844 42.609375 78.933594 C 41.039062 79 39.816406 80.328125 39.878906 81.902344 C 39.941406 83.476562 41.265625 84.691406 42.851562 84.632812 C 107.617188 81.914062 173.269531 82.066406 238.019531 85.082031 C 240.5 148.695312 253.257812 202.519531 276.671875 248.566406 C 254.167969 249.964844 133.800781 250.914062 51.191406 251.242188 Z M 51.191406 251.242188 " fill-opacity="1" fill-rule="nonzero"/></g></g></g></svg>