<svg xmlns="http://www.w3.org/2000/svg" xmlns:xlink="http://www.w3.org/1999/xlink" width="945" zoomAndPan="magnify" viewBox="0 0 708.75 708.749996" height="945" preserveAspectRatio="xMidYMid meet" version="1.0"><defs><clipPath id="2a45d29367"><path d="M 1.332031 199 L 147 199 L 147 339 L 1.332031 339 Z M 1.332031 199 " clip-rule="nonzero"/></clipPath><clipPath id="d2227bd2d8"><path d="M 84 1.039062 L 87 1.039062 L 87 7 L 84 7 Z M 84 1.039062 " clip-rule="nonzero"/></clipPath><clipPath id="c4b0530fdd"><rect x="0" width="284" y="0" height="374"/></clipPath></defs><g transform="matrix(1, 0, 0, 1, 212, 166)"><g clip-path="url(#c4b0530fdd)"><path fill="#9e1633" d="M 191.316406 348.914062 C 191.136719 348.734375 189.441406 349.390625 189.023438 349.46875 C 188.808594 349.515625 188.523438 349.445312 188.230469 349.492188 C 181.019531 350.585938 173.503906 350.40625 166.273438 351.660156 C 162.519531 352.304688 153.785156 354.28125 151.875 357.855469 C 150.992188 359.480469 151.390625 360.089844 152.824219 360.972656 C 159.546875 365.144531 173.109375 366.667969 180.886719 367.335938 C 198.980469 368.882812 220.28125 370.320312 237.765625 365.144531 C 241.28125 364.105469 245.460938 362.511719 247.132812 359.050781 C 246.863281 358.226562 246.785156 357.414062 246.296875 356.667969 C 246.046875 356.28125 245.347656 355.558594 244.976562 355.277344 C 242.273438 353.175781 237.796875 352.667969 234.566406 352.125 C 225.953125 350.6875 217.140625 350.101562 208.515625 348.621094 C 207.882812 348.507812 207.351562 348.871094 206.878906 348.089844 C 206.617188 348.113281 206.742188 348.53125 206.742188 348.769531 C 206.71875 350.179688 206.347656 352.554688 206.460938 353.648438 C 206.503906 354.035156 207.117188 354.859375 206.066406 354.859375 C 205.523438 354.859375 205.171875 354.101562 205.105469 353.648438 C 204.867188 351.933594 205.285156 349.726562 205.125 347.941406 C 205.105469 347.648438 204.890625 347.492188 204.878906 347.378906 C 202.730469 330.074219 204.5625 312.707031 204.019531 295.085938 C 204.277344 294.125 204.605469 293.695312 205.65625 293.878906 C 205.703125 294.5 206.144531 295.335938 206.210938 295.902344 C 206.550781 298.984375 206.5625 302.273438 206.730469 305.40625 C 207.433594 318.367188 207.691406 332.300781 207.003906 345.5 C 206.980469 346 207.035156 346.507812 207.003906 347.003906 C 209.660156 347.09375 212.347656 346.878906 215.003906 347.003906 C 221.164062 347.265625 227.957031 347.953125 234 348.878906 C 238.90625 349.636719 246.253906 350.519531 249.144531 355.140625 C 249.847656 356.261719 250.070312 357.300781 250.378906 358.519531 C 250.152344 359.402344 250.082031 360.339844 249.777344 361.199219 C 248.398438 365.121094 242.5 367.492188 238.804688 368.65625 C 217.070312 375.496094 189.113281 372.691406 167.019531 369.222656 C 161.480469 368.351562 153.761719 367.550781 149.242188 363.683594 C 148.992188 363.472656 148.992188 363.164062 148.847656 362.996094 C 147.816406 361.84375 147.660156 361.742188 147.320312 360.183594 C 147.296875 360.058594 147.128906 359.96875 147.105469 359.855469 C 146.980469 359.097656 147.480469 358.53125 147.378906 357.742188 C 150.214844 350.824219 158.925781 348.53125 165.628906 347.535156 C 172.816406 346.472656 179.507812 346.777344 186.785156 346.472656 C 187.871094 346.429688 189.023438 346.066406 190.3125 346.179688 C 190.605469 346.203125 190.921875 346.53125 190.976562 346.460938 C 191.011719 346.429688 190.945312 346.054688 191.011719 345.816406 C 191.507812 343.941406 191.316406 340.304688 191.261719 338.191406 C 191.058594 330.371094 190.582031 322.957031 190.695312 314.886719 C 190.695312 314.71875 190.71875 313.902344 190.730469 313.847656 C 192.050781 306.851562 189.949219 297.550781 191.238281 290.488281 C 191.375 289.773438 191.8125 288.960938 191.792969 288.191406 C 190.34375 289.378906 188.839844 290.929688 187.859375 292.53125 C 185.890625 295.753906 185.453125 299.6875 183.621094 302.941406 C 181.144531 307.347656 177.066406 309.632812 172.148438 310.433594 C 166.53125 311.347656 156.078125 309.496094 152.078125 314.492188 C 149.941406 317.15625 148.5625 321.488281 146.664062 324.527344 C 144.167969 328.515625 138.585938 333.160156 134.15625 334.789062 C 133.542969 335.015625 131.429688 335.691406 130.933594 335.648438 C 130.550781 335.613281 130.222656 335.21875 129.726562 335.363281 C 129.53125 333.566406 130.390625 334.199219 131.5 334.019531 C 134.550781 333.535156 140.347656 329.441406 142.335938 326.96875 C 143.582031 325.40625 144.722656 322.730469 145.410156 320.832031 C 146.777344 317.078125 147.285156 311.28125 150.328125 308.671875 C 152.675781 306.648438 156.699219 305.425781 159.671875 305.007812 C 163.855469 304.410156 169.59375 305.078125 173.472656 303.621094 C 178.886719 301.597656 178.964844 296.625 181.269531 292.171875 C 183.066406 288.714844 187.984375 283.390625 191.972656 282.8125 C 192.527344 282.734375 194.683594 282.882812 194.785156 282.78125 C 194.820312 282.746094 194.820312 281.730469 194.785156 281.695312 C 194.582031 281.492188 189.847656 281.75 188.945312 281.695312 C 179.089844 281.128906 166.703125 277.863281 157.277344 274.328125 C 149.367188 271.367188 136.515625 263.882812 135.183594 254.683594 C 134.742188 251.644531 136.921875 247.417969 139.488281 245.769531 C 143.691406 243.066406 149.09375 242.863281 153.683594 244.59375 C 162.035156 247.722656 172.285156 255.9375 179.066406 261.769531 C 182.398438 264.628906 187 268.539062 189.78125 271.929688 C 190.027344 272.234375 190.320312 272.710938 190.570312 273.027344 C 191.214844 273.804688 193.488281 276.15625 194.230469 276.6875 C 194.414062 276.8125 195.203125 277.21875 195.316406 277.082031 C 195.894531 274.8125 197.566406 272.9375 200.0625 273.277344 C 200.492188 273.332031 201.691406 274.257812 201.949219 274.632812 C 202.109375 274.847656 202.527344 275.648438 202.59375 275.886719 C 202.6875 276.203125 202.460938 276.699219 202.765625 276.800781 C 203.398438 276.359375 204.167969 276.03125 204.800781 275.582031 C 208.855469 272.664062 213.421875 268.097656 217.140625 264.605469 C 227.617188 254.765625 242.511719 237.066406 256.738281 234.003906 C 261.292969 233.019531 267.53125 234.589844 270.097656 238.75 C 270.414062 239.257812 271.351562 241.226562 271.453125 241.722656 C 271.53125 242.09375 271.421875 242.46875 271.464844 242.785156 C 272.164062 247.113281 269 253.632812 266.1875 257.011719 C 257.871094 267.015625 241.832031 273.332031 229.628906 277.09375 C 223.515625 278.984375 215.796875 281.230469 209.546875 281.683594 C 208.574219 281.75 203.386719 281.445312 203.171875 281.683594 C 203.082031 281.773438 203.226562 283.320312 203.171875 283.730469 C 203.113281 284.136719 202.742188 284.429688 202.890625 284.9375 L 207.363281 284.9375 C 207.453125 284.9375 208.652344 285.140625 209.003906 285.199219 C 219.511719 286.949219 221.355469 296.511719 227.152344 303.640625 C 227.605469 304.195312 227.964844 304.929688 228.632812 305.40625 C 229.445312 305.992188 230.023438 305.957031 230.90625 306.117188 C 233.832031 306.625 236.894531 306.160156 239.890625 306.34375 C 241.019531 306.410156 242.816406 306.671875 243.957031 306.886719 C 248.785156 307.800781 252.773438 311.496094 254.613281 316.015625 C 255.203125 317.464844 255.460938 319.101562 256.050781 320.546875 C 256.828125 322.503906 258.75 325.398438 260.785156 326.109375 C 262.820312 326.820312 265.578125 327.203125 267.816406 327.488281 C 268.132812 327.523438 268.3125 327.746094 268.605469 327.78125 C 269.847656 327.894531 272.222656 327.511719 273.207031 327.78125 C 273.441406 327.847656 274.167969 328.84375 274.167969 328.980469 C 274.167969 329.023438 273.589844 329.613281 273.476562 329.636719 C 272.808594 329.828125 269 329.726562 268.0625 329.65625 C 267.757812 329.636719 267.578125 329.398438 267.273438 329.363281 C 261.507812 328.777344 255.066406 327.960938 251.710938 322.425781 C 249.609375 318.964844 248.636719 314.199219 243.925781 313.136719 C 240.78125 312.421875 236.929688 313.042969 233.640625 312.839844 C 232.746094 312.785156 231.289062 312.46875 230.363281 312.320312 C 227.050781 311.8125 224.847656 310.320312 222.667969 307.824219 C 218.722656 303.304688 215.738281 294.171875 211.296875 291.007812 C 209.285156 289.570312 205.464844 289.007812 203.058594 288.679688 C 202.921875 288.65625 202.855469 288.441406 202.492188 288.441406 C 202.222656 288.441406 202.425781 288.757812 202.3125 289.085938 C 202.222656 289.347656 201.714844 290.386719 201.542969 290.488281 C 201.429688 290.554688 200.742188 290.816406 200.5625 290.859375 C 200.335938 290.917969 198.898438 290.398438 198.832031 290.328125 C 198.785156 290.285156 198.832031 289.988281 198.695312 289.796875 C 198.480469 289.492188 197.804688 289.378906 197.464844 289.132812 C 196.867188 288.703125 196.039062 287.210938 195.691406 287.109375 C 194.730469 286.835938 193.824219 287.558594 192.863281 287.367188 C 194.503906 288.996094 193.835938 291.335938 193.9375 293.472656 C 194.539062 305.734375 194.242188 318.730469 193.691406 331.148438 C 193.394531 337.773438 193.136719 344.824219 192.582031 351.457031 C 192.527344 352.15625 192.742188 353.332031 192.582031 353.898438 C 192.414062 354.507812 191.90625 354.035156 191.507812 354.035156 C 191.632812 353.707031 191.238281 353.402344 191.238281 353.355469 C 191.238281 352.699219 191.394531 349.039062 191.238281 348.878906 Z M 211.375 276.269531 C 212.144531 276.472656 212.800781 276.078125 213.398438 275.988281 C 226.734375 274.03125 243.210938 266.800781 254.480469 259.328125 C 258.75 256.503906 264.808594 250.480469 265.554688 245.203125 C 265.835938 243.226562 265.316406 241.789062 263.691406 240.625 C 262.640625 239.867188 261.699219 239.867188 260.558594 239.6875 C 260.175781 239.632812 259.984375 239.347656 259.472656 239.394531 C 258.175781 239.519531 256.1875 240.027344 254.910156 240.523438 C 241.042969 246.039062 230.429688 260.878906 219.492188 269.886719 C 217.695312 271.367188 215.941406 272.847656 214.078125 274.234375 C 213.183594 274.902344 212.066406 275.355469 211.363281 276.269531 Z M 190.773438 276.8125 C 189.894531 276.507812 188.761719 275.917969 187.960938 275.421875 C 176.230469 268.132812 165.652344 255.148438 152.925781 250.015625 C 150.191406 248.910156 147.796875 248.152344 144.867188 248.921875 C 143.726562 249.226562 143.128906 249.699219 142.269531 250.390625 C 142.078125 250.546875 141.792969 250.492188 141.75 250.539062 C 141.691406 250.59375 141.773438 250.796875 141.703125 250.886719 C 140.992188 251.859375 141.027344 251.882812 140.890625 253.058594 C 140.878906 253.191406 140.609375 253.316406 140.664062 253.601562 C 140.6875 253.722656 140.867188 253.816406 140.890625 253.9375 C 141.082031 255.578125 142.007812 257.214844 143.082031 258.515625 C 150.316406 267.320312 165.867188 271.058594 176.535156 273.863281 C 180.703125 274.960938 185.441406 276.304688 189.609375 277.050781 C 189.871094 277.09375 190.851562 277.296875 190.796875 276.8125 Z M 190.773438 276.8125 " fill-opacity="1" fill-rule="nonzero"/><g clip-path="url(#2a45d29367)"><path fill="#9e1633" d="M 63.386719 314.21875 C 63.207031 314.039062 61.511719 314.695312 61.09375 314.773438 C 60.878906 314.820312 60.59375 314.75 60.300781 314.796875 C 53.089844 315.890625 45.574219 315.710938 38.34375 316.964844 C 34.589844 317.609375 25.855469 319.589844 23.945312 323.160156 C 23.0625 324.785156 23.457031 325.398438 24.894531 326.277344 C 31.617188 330.449219 45.179688 331.972656 52.957031 332.640625 C 71.046875 334.1875 92.351562 335.625 109.835938 330.449219 C 113.347656 329.410156 117.53125 327.816406 119.203125 324.355469 C 118.933594 323.53125 118.851562 322.71875 118.367188 321.972656 C 118.117188 321.589844 117.417969 320.863281 117.042969 320.582031 C 114.34375 318.480469 109.867188 317.972656 106.636719 317.429688 C 98.023438 315.996094 89.210938 315.40625 80.585938 313.925781 C 79.953125 313.8125 79.421875 314.175781 78.949219 313.394531 C 78.6875 313.417969 78.8125 313.835938 78.8125 314.074219 C 78.789062 315.484375 78.417969 317.859375 78.53125 318.957031 C 78.574219 319.339844 79.183594 320.164062 78.132812 320.164062 C 77.59375 320.164062 77.242188 319.40625 77.175781 318.957031 C 76.9375 317.238281 77.355469 315.035156 77.195312 313.246094 C 77.175781 312.953125 76.960938 312.796875 76.949219 312.683594 C 74.800781 295.378906 76.632812 278.011719 76.089844 260.390625 C 76.347656 259.429688 76.675781 259 77.726562 259.183594 C 77.773438 259.804688 78.214844 260.640625 78.28125 261.207031 C 78.621094 264.289062 78.632812 267.578125 78.800781 270.710938 C 79.5 283.671875 79.761719 297.605469 79.074219 310.808594 C 79.050781 311.304688 79.105469 311.8125 79.074219 312.308594 C 81.726562 312.398438 84.417969 312.1875 87.074219 312.308594 C 93.234375 312.570312 100.023438 313.257812 106.070312 314.1875 C 110.976562 314.941406 118.320312 315.824219 121.214844 320.445312 C 121.914062 321.566406 122.140625 322.605469 122.445312 323.824219 C 122.222656 324.707031 122.152344 325.644531 121.847656 326.503906 C 120.46875 330.425781 114.570312 332.800781 110.875 333.964844 C 89.140625 340.800781 61.183594 337.996094 39.089844 334.527344 C 33.550781 333.65625 25.832031 332.855469 21.3125 328.992188 C 21.0625 328.777344 21.0625 328.472656 20.917969 328.300781 C 19.886719 327.148438 19.730469 327.046875 19.390625 325.488281 C 19.367188 325.363281 19.199219 325.273438 19.175781 325.160156 C 19.050781 324.402344 19.546875 323.835938 19.445312 323.046875 C 22.285156 316.128906 30.996094 313.835938 37.699219 312.839844 C 44.886719 311.777344 51.578125 312.082031 58.855469 311.777344 C 59.941406 311.734375 61.09375 311.371094 62.378906 311.484375 C 62.675781 311.507812 62.992188 311.835938 63.046875 311.765625 C 63.082031 311.734375 63.011719 311.359375 63.082031 311.125 C 63.578125 309.246094 63.386719 305.609375 63.328125 303.496094 C 63.125 295.675781 62.652344 288.261719 62.765625 280.191406 C 62.765625 280.023438 62.789062 279.207031 62.796875 279.152344 C 64.121094 272.15625 62.019531 262.855469 63.308594 255.792969 C 63.441406 255.082031 63.882812 254.265625 63.859375 253.5 C 62.414062 254.683594 60.910156 256.234375 59.929688 257.835938 C 57.960938 261.058594 57.519531 264.992188 55.691406 268.246094 C 53.214844 272.652344 49.136719 274.9375 44.21875 275.738281 C 38.601562 276.65625 28.148438 274.800781 24.148438 279.796875 C 22.011719 282.464844 20.632812 286.792969 18.734375 289.832031 C 16.238281 293.820312 10.65625 298.464844 6.222656 300.09375 C 5.613281 300.320312 3.5 300.996094 3.003906 300.953125 C 2.621094 300.917969 2.292969 300.523438 1.792969 300.667969 C 1.601562 298.871094 2.460938 299.503906 3.570312 299.324219 C 6.621094 298.839844 12.417969 294.746094 14.40625 292.273438 C 15.648438 290.714844 16.792969 288.035156 17.480469 286.136719 C 18.847656 282.382812 19.355469 276.585938 22.398438 273.976562 C 24.746094 271.953125 28.769531 270.734375 31.742188 270.316406 C 35.925781 269.714844 41.664062 270.382812 45.542969 268.925781 C 50.953125 266.902344 51.035156 261.929688 53.339844 257.476562 C 55.136719 254.019531 60.050781 248.695312 64.042969 248.117188 C 64.59375 248.039062 66.753906 248.1875 66.855469 248.085938 C 66.890625 248.050781 66.890625 247.035156 66.855469 247 C 66.652344 246.796875 61.917969 247.054688 61.011719 247 C 51.160156 246.433594 38.773438 243.167969 29.347656 239.632812 C 21.4375 236.671875 8.585938 229.1875 7.253906 219.988281 C 6.8125 216.949219 8.992188 212.722656 11.558594 211.074219 C 15.761719 208.371094 21.164062 208.167969 25.753906 209.898438 C 33.71875 212.882812 43 220.296875 49.507812 225.71875 C 53.375 228.941406 58.640625 233.3125 61.847656 237.234375 C 62.097656 237.539062 62.390625 238.015625 62.640625 238.332031 C 63.285156 239.113281 65.554688 241.460938 66.300781 241.992188 C 66.484375 242.117188 67.273438 242.523438 67.386719 242.390625 C 67.964844 240.117188 69.636719 238.242188 72.132812 238.582031 C 72.5625 238.636719 73.761719 239.5625 74.019531 239.9375 C 74.179688 240.152344 74.597656 240.953125 74.664062 241.191406 C 74.753906 241.507812 74.53125 242.003906 74.835938 242.105469 C 75.46875 241.664062 76.234375 241.339844 76.867188 240.886719 C 80.925781 237.96875 85.492188 233.40625 89.210938 229.914062 C 99.6875 220.070312 114.582031 202.371094 128.808594 199.308594 C 133.363281 198.324219 139.601562 199.894531 142.167969 204.054688 C 142.484375 204.5625 143.421875 206.53125 143.523438 207.027344 C 143.601562 207.398438 143.488281 207.773438 143.535156 208.089844 C 144.234375 212.417969 141.070312 218.9375 138.257812 222.316406 C 129.941406 232.320312 113.902344 238.636719 101.699219 242.402344 C 95.582031 244.289062 87.863281 246.535156 81.617188 246.988281 C 80.644531 247.054688 75.457031 246.75 75.242188 246.988281 C 75.152344 247.078125 75.296875 248.628906 75.242188 249.035156 C 75.183594 249.441406 74.8125 249.734375 74.957031 250.242188 L 79.433594 250.242188 C 79.523438 250.242188 80.722656 250.445312 81.074219 250.503906 C 91.582031 252.253906 93.425781 261.816406 99.222656 268.945312 C 99.675781 269.5 100.035156 270.234375 100.703125 270.710938 C 101.515625 271.296875 102.09375 271.265625 102.976562 271.421875 C 105.902344 271.929688 108.964844 271.46875 111.960938 271.648438 C 113.089844 271.714844 114.886719 271.976562 116.027344 272.191406 C 120.851562 273.105469 124.84375 276.800781 126.683594 281.320312 C 127.273438 282.769531 127.53125 284.40625 128.121094 285.855469 C 128.898438 287.808594 130.820312 290.703125 132.855469 291.414062 C 134.890625 292.125 137.648438 292.511719 139.882812 292.792969 C 140.199219 292.828125 140.382812 293.050781 140.675781 293.085938 C 141.917969 293.199219 144.292969 292.816406 145.273438 293.085938 C 145.511719 293.15625 146.234375 294.148438 146.234375 294.285156 C 146.234375 294.328125 145.660156 294.917969 145.546875 294.941406 C 144.878906 295.132812 141.070312 295.03125 140.132812 294.960938 C 139.828125 294.941406 139.648438 294.703125 139.34375 294.667969 C 133.578125 294.082031 127.136719 293.265625 123.78125 287.730469 C 121.679688 284.273438 120.707031 279.503906 115.992188 278.441406 C 112.851562 277.726562 109 278.351562 105.710938 278.144531 C 104.816406 278.089844 103.359375 277.773438 102.433594 277.625 C 99.121094 277.117188 96.917969 275.625 94.734375 273.128906 C 90.792969 268.609375 87.808594 259.476562 83.367188 256.3125 C 81.355469 254.878906 77.535156 254.3125 75.128906 253.984375 C 74.992188 253.960938 74.925781 253.746094 74.5625 253.746094 C 74.292969 253.746094 74.496094 254.0625 74.382812 254.390625 C 74.292969 254.652344 73.785156 255.691406 73.613281 255.792969 C 73.5 255.859375 72.8125 256.121094 72.628906 256.164062 C 72.40625 256.222656 70.96875 255.703125 70.902344 255.632812 C 70.855469 255.589844 70.902344 255.296875 70.765625 255.101562 C 70.550781 254.796875 69.875 254.683594 69.535156 254.4375 C 68.933594 254.007812 68.109375 252.515625 67.761719 252.414062 C 66.800781 252.140625 65.894531 252.867188 64.933594 252.671875 C 66.574219 254.300781 65.90625 256.640625 66.007812 258.777344 C 66.605469 271.039062 66.3125 284.035156 65.757812 296.453125 C 65.464844 303.078125 65.207031 310.128906 64.652344 316.761719 C 64.59375 317.464844 64.808594 318.640625 64.652344 319.203125 C 64.484375 319.8125 63.972656 319.339844 63.578125 319.339844 C 63.703125 319.011719 63.308594 318.707031 63.308594 318.660156 C 63.308594 318.003906 63.464844 314.34375 63.308594 314.1875 Z M 83.445312 241.574219 C 84.214844 241.777344 84.871094 241.382812 85.46875 241.292969 C 98.804688 239.335938 115.28125 232.105469 126.550781 224.632812 C 130.820312 221.808594 136.878906 215.785156 137.625 210.507812 C 137.90625 208.53125 137.386719 207.09375 135.757812 205.929688 C 134.707031 205.175781 133.769531 205.175781 132.628906 204.992188 C 132.246094 204.9375 132.054688 204.652344 131.542969 204.699219 C 130.246094 204.824219 128.253906 205.332031 126.980469 205.828125 C 113.113281 211.34375 102.5 226.183594 91.558594 235.191406 C 89.761719 236.671875 88.011719 238.152344 86.148438 239.542969 C 85.253906 240.207031 84.136719 240.660156 83.433594 241.574219 Z M 62.84375 242.117188 C 61.960938 241.8125 60.832031 241.226562 60.03125 240.726562 C 48.300781 233.4375 37.722656 220.453125 24.996094 215.324219 C 22.261719 214.214844 19.863281 213.457031 16.9375 214.226562 C 15.796875 214.53125 15.199219 215.007812 14.339844 215.695312 C 14.148438 215.855469 13.863281 215.796875 13.820312 215.84375 C 13.761719 215.898438 13.839844 216.101562 13.773438 216.191406 C 13.0625 217.164062 13.097656 217.1875 12.960938 218.363281 C 12.949219 218.5 12.675781 218.621094 12.734375 218.90625 C 12.757812 219.03125 12.9375 219.121094 12.960938 219.242188 C 13.152344 220.882812 14.078125 222.519531 15.152344 223.820312 C 22.386719 232.625 37.9375 236.367188 48.605469 239.167969 C 52.773438 240.265625 57.507812 241.609375 61.679688 242.355469 C 61.941406 242.398438 62.921875 242.605469 62.867188 242.117188 Z M 62.84375 242.117188 " fill-opacity="1" fill-rule="nonzero"/></g><path fill="#9e1633" d="M 227.097656 94.941406 C 227.097656 94.941406 227.527344 94.894531 227.75 94.964844 C 228.375 95.144531 228.375 96.671875 228.488281 97.214844 C 228.949219 99.460938 229.910156 101.722656 230.089844 104.015625 C 230.769531 112.683594 230.609375 121.351562 230.882812 130.054688 C 230.882812 130.359375 231.164062 130.550781 231.175781 130.84375 C 231.695312 146.914062 231.875 163.019531 232.261719 179.089844 C 232.316406 181.496094 232.519531 185.363281 232.011719 187.53125 C 231.957031 187.792969 232.011719 188.0625 231.957031 188.289062 C 231.898438 188.492188 231.300781 189.070312 231.027344 188.992188 C 230.226562 188.753906 230.453125 186.46875 230.363281 185.859375 C 230.058594 183.769531 229.761719 182.050781 229.546875 179.894531 C 228.136719 165.699219 227.863281 151.132812 227.085938 136.8125 C 227.015625 135.601562 227.152344 134.359375 227.085938 133.140625 C 226.375 133.511719 225.953125 134.292969 225.289062 134.734375 C 222.984375 136.257812 219.296875 137.0625 216.652344 137.492188 C 212.292969 138.191406 208.085938 138.113281 203.625 138.28125 C 194.785156 138.621094 186.152344 139.300781 177.335938 138.03125 C 175.28125 137.738281 171.402344 137.105469 169.527344 136.359375 C 169.03125 136.167969 168.703125 135.839844 168.273438 135.582031 C 168.339844 139.410156 168.183594 143.277344 168.273438 147.109375 C 168.566406 161.1875 169.3125 175.316406 169.902344 189.386719 C 170.136719 195.003906 170.726562 200.925781 170.441406 206.449219 C 170.375 207.785156 170.566406 208.621094 168.828125 208.484375 C 168.828125 207.976562 168.429688 207.421875 168.320312 206.960938 C 167.820312 204.96875 167.730469 202.753906 167.480469 200.742188 C 166.023438 188.695312 165.617188 176.378906 165.042969 164.148438 C 164.160156 145.527344 163.4375 126.257812 165.289062 107.769531 C 165.683594 103.835938 166.011719 99.753906 166.679688 95.878906 C 166.703125 95.734375 167.042969 95.527344 166.929688 95.179688 C 168.296875 95.292969 167.390625 94.941406 167.582031 94.636719 C 168.058594 93.867188 168.738281 93.425781 169.097656 94.5 C 169.878906 96.828125 173.484375 98.433594 175.777344 99.214844 C 186.289062 102.773438 201.847656 103.066406 212.609375 100.886719 C 215.308594 100.34375 221.445312 98.535156 223.683594 97.042969 C 224.066406 96.792969 225.433594 94.976562 225.75 96.128906 C 225.898438 96.683594 225.671875 96.839844 225.480469 97.203125 C 223.605469 100.761719 220.8125 101.65625 217.253906 102.796875 C 208.6875 105.53125 199.046875 105.339844 190.128906 104.378906 C 184.714844 103.800781 172.363281 101.949219 168.703125 97.621094 C 168.578125 97.460938 168.398438 96.804688 168.160156 96.804688 C 167.605469 96.792969 167.808594 98.242188 167.765625 98.582031 C 167.3125 101.765625 167.257812 102.898438 167.492188 106.152344 C 168.070312 114.109375 167.675781 122.277344 168.023438 130.28125 C 168.035156 130.574219 168.023438 130.878906 168.429688 130.6875 C 168.90625 130.460938 169.605469 129.660156 170.09375 129.363281 C 172.792969 127.714844 176.996094 127.117188 180.0625 126.585938 C 184.875 125.769531 190.0625 125.160156 194.988281 124.980469 C 205.195312 124.597656 216.054688 124.472656 226.203125 126.042969 C 227.707031 126.28125 226.824219 125.882812 226.882812 125.433594 C 227.46875 121.035156 226.710938 113.644531 226.585938 108.851562 C 226.484375 104.820312 226.148438 100.410156 226.566406 95.84375 C 226.585938 95.550781 226.914062 95.234375 226.847656 95.179688 C 226.769531 95.109375 226.226562 95.292969 226.023438 95.054688 L 225.199219 93.300781 C 221.308594 90.828125 216.609375 89.324219 212.078125 88.398438 C 201.972656 86.328125 191.113281 86.578125 181.132812 89.460938 C 177.800781 90.082031 174.964844 92.058594 171.957031 93.574219 C 170.21875 93.824219 169.585938 92.984375 169.933594 91.28125 C 170.148438 90.25 172.261719 89.390625 173.066406 88.714844 C 185.167969 83.050781 200.59375 82.339844 213.421875 85.414062 C 217.105469 86.296875 224.800781 88.769531 226.972656 91.925781 C 227.390625 92.535156 227.265625 93.144531 227.628906 93.722656 C 227.695312 94.058594 227.007812 94.828125 227.097656 94.90625 Z M 170.441406 133.152344 L 172.738281 133.703125 C 185.226562 135.386719 197.488281 135.015625 210.144531 134.226562 C 214.507812 133.953125 219.277344 133.816406 223.402344 132.03125 C 224.6875 131.476562 226.160156 130.222656 225.730469 128.6875 C 225.660156 128.4375 225.332031 128.304688 225.0625 128.269531 C 223.480469 128.054688 221.320312 128.347656 219.625 128.28125 C 206.179688 127.792969 192.515625 127.691406 179.484375 130.132812 C 176.976562 130.609375 174.046875 131.09375 171.699219 132.101562 C 171.4375 132.214844 170.207031 132.957031 170.441406 133.152344 Z M 170.441406 133.152344 " fill-opacity="1" fill-rule="nonzero"/><path fill="#9e1633" d="M 99.167969 60.246094 C 99.167969 60.246094 99.59375 60.203125 99.820312 60.269531 C 100.441406 60.449219 100.441406 61.976562 100.554688 62.519531 C 101.019531 64.765625 101.980469 67.027344 102.160156 69.320312 C 102.839844 77.988281 102.679688 86.65625 102.953125 95.359375 C 102.953125 95.664062 103.234375 95.855469 103.246094 96.152344 C 103.765625 112.222656 103.945312 128.324219 104.332031 144.394531 C 104.386719 146.804688 104.589844 150.667969 104.082031 152.835938 C 104.027344 153.097656 104.082031 153.367188 104.027344 153.59375 C 103.96875 153.796875 103.371094 154.375 103.097656 154.296875 C 102.296875 154.058594 102.523438 151.777344 102.433594 151.164062 C 102.128906 149.074219 101.832031 147.355469 101.617188 145.199219 C 100.207031 131.003906 99.933594 116.4375 99.15625 102.117188 C 99.085938 100.910156 99.222656 99.664062 99.15625 98.445312 C 98.441406 98.816406 98.023438 99.597656 97.359375 100.039062 C 95.050781 101.5625 91.367188 102.367188 88.722656 102.796875 C 84.363281 103.496094 80.15625 103.417969 75.695312 103.585938 C 66.855469 103.925781 58.222656 104.605469 49.40625 103.339844 C 47.351562 103.042969 43.472656 102.410156 41.597656 101.664062 C 41.101562 101.472656 40.773438 101.144531 40.34375 100.886719 C 40.410156 104.71875 40.253906 108.582031 40.34375 112.414062 C 40.636719 126.496094 41.382812 140.621094 41.96875 154.691406 C 42.207031 160.308594 42.796875 166.230469 42.511719 171.757812 C 42.445312 173.089844 42.636719 173.925781 40.898438 173.789062 C 40.898438 173.28125 40.5 172.726562 40.386719 172.265625 C 39.890625 170.277344 39.800781 168.0625 39.550781 166.050781 C 38.09375 154 37.6875 141.683594 37.109375 129.457031 C 36.230469 110.832031 35.507812 91.5625 37.359375 73.074219 C 37.753906 69.140625 38.082031 65.0625 38.75 61.183594 C 38.773438 61.039062 39.109375 60.835938 39 60.484375 C 40.367188 60.597656 39.460938 60.246094 39.652344 59.941406 C 40.128906 59.171875 40.804688 58.730469 41.167969 59.804688 C 41.949219 62.132812 45.554688 63.738281 47.847656 64.519531 C 58.355469 68.078125 73.917969 68.371094 84.679688 66.191406 C 87.378906 65.648438 93.515625 63.839844 95.753906 62.347656 C 96.136719 62.101562 97.503906 60.28125 97.820312 61.433594 C 97.96875 61.988281 97.742188 62.144531 97.550781 62.507812 C 95.675781 66.066406 92.882812 66.960938 89.324219 68.101562 C 80.757812 70.835938 71.117188 70.644531 62.199219 69.683594 C 56.785156 69.105469 44.433594 67.253906 40.773438 62.925781 C 40.648438 62.765625 40.46875 62.109375 40.230469 62.109375 C 39.675781 62.101562 39.878906 63.546875 39.835938 63.886719 C 39.382812 67.074219 39.324219 68.203125 39.5625 71.457031 C 40.140625 79.414062 39.742188 87.585938 40.09375 95.585938 C 40.105469 95.878906 40.09375 96.183594 40.5 95.992188 C 40.976562 95.765625 41.675781 94.964844 42.164062 94.671875 C 44.863281 93.019531 49.066406 92.421875 52.128906 91.890625 C 56.945312 91.078125 62.132812 90.464844 67.058594 90.285156 C 77.265625 89.902344 88.125 89.777344 98.273438 91.347656 C 99.777344 91.585938 98.894531 91.1875 98.953125 90.738281 C 99.539062 86.339844 98.78125 78.949219 98.65625 74.160156 C 98.554688 70.125 98.21875 65.714844 98.636719 61.152344 C 98.65625 60.855469 98.984375 60.539062 98.917969 60.484375 C 98.839844 60.417969 98.296875 60.597656 98.09375 60.359375 L 97.265625 58.609375 C 93.378906 56.132812 88.679688 54.628906 84.148438 53.703125 C 74.042969 51.636719 63.183594 51.882812 53.203125 54.765625 C 49.871094 55.386719 47.035156 57.363281 44.027344 58.878906 C 42.285156 59.128906 41.652344 58.292969 42.003906 56.585938 C 42.21875 55.554688 44.332031 54.699219 45.136719 54.019531 C 57.238281 48.359375 72.664062 47.644531 85.492188 50.71875 C 89.175781 51.601562 96.871094 54.074219 99.042969 57.230469 C 99.460938 57.839844 99.335938 58.449219 99.699219 59.027344 C 99.765625 59.363281 99.074219 60.132812 99.167969 60.210938 Z M 42.511719 98.457031 L 44.808594 99.011719 C 57.296875 100.695312 69.558594 100.320312 82.214844 99.53125 C 86.578125 99.257812 91.34375 99.121094 95.46875 97.335938 C 96.757812 96.785156 98.226562 95.527344 97.796875 93.992188 C 97.730469 93.742188 97.402344 93.609375 97.132812 93.574219 C 95.550781 93.359375 93.390625 93.652344 91.695312 93.585938 C 78.246094 93.097656 64.585938 92.996094 51.554688 95.4375 C 49.046875 95.914062 46.117188 96.398438 43.765625 97.40625 C 43.507812 97.519531 42.277344 98.265625 42.511719 98.457031 Z M 42.511719 98.457031 " fill-opacity="1" fill-rule="nonzero"/><path fill="#9e1633" d="M 282.652344 62.675781 C 282.527344 62.800781 281.039062 63.105469 280.664062 63.265625 C 279.457031 63.785156 277.136719 64.8125 276.15625 65.523438 C 274.359375 66.824219 273.882812 70.203125 273.421875 72.269531 C 272.515625 76.214844 271.828125 80.285156 271.046875 84.261719 C 270.980469 84.578125 270.832031 86.160156 270.742188 86.25 C 270.707031 86.285156 269.929688 86.523438 269.804688 86.535156 C 269.464844 86.566406 269.195312 86.554688 268.980469 86.261719 C 268.867188 86.105469 268.347656 85.347656 268.324219 85.289062 C 268.074219 84.429688 268.378906 82.328125 268.324219 81.234375 C 268.265625 80.375 267.816406 78.859375 267.757812 78 C 267.542969 74.710938 268.324219 70.8125 267.183594 67.726562 C 266.855469 66.835938 266.367188 66.023438 265.429688 65.683594 C 265.226562 65.601562 264.933594 65.683594 264.683594 65.625 C 262.910156 65.253906 261.507812 65.535156 259.757812 65.398438 C 259.035156 65.34375 257.835938 64.96875 257.066406 64.835938 C 256.738281 64.777344 256.320312 64.925781 255.992188 64.835938 C 255.878906 64.800781 255.304688 64.226562 255.304688 64.179688 C 255.304688 64.132812 255.621094 63.546875 255.722656 63.5 C 256.378906 63.230469 257.214844 62.539062 257.621094 62.4375 C 259.464844 62.007812 261.417969 62.269531 263.261719 61.839844 C 264.695312 61.511719 265.429688 59.421875 265.824219 58.179688 C 266.683594 55.476562 268.347656 49.984375 268.582031 47.375 C 268.753906 45.476562 268.425781 43.351562 268.582031 41.417969 C 268.910156 40.910156 269.601562 40.332031 270.0625 40.988281 C 270.832031 42.074219 270.359375 44.59375 270.460938 46.019531 C 270.628906 48.359375 271.542969 50.675781 271.542969 53.070312 C 272.054688 54.496094 271.714844 56.414062 272.492188 57.816406 C 272.796875 58.371094 274.617188 59.804688 275.238281 59.953125 C 275.613281 60.03125 275.984375 59.917969 276.300781 59.964844 C 277.691406 60.210938 279.230469 60.628906 280.621094 60.800781 C 281.679688 60.925781 282.472656 60.359375 282.925781 61.761719 C 282.9375 61.804688 282.6875 62.640625 282.652344 62.675781 Z M 275.882812 62.675781 C 273.90625 62.5625 271.984375 61.570312 271.035156 59.792969 L 269.644531 56.710938 C 269.070312 58.664062 268.4375 61.558594 266.671875 62.8125 C 266.4375 62.980469 266.121094 62.835938 266.121094 63.070312 C 266.558594 63.671875 267.746094 63.796875 268.164062 64.28125 C 268.449219 64.621094 269.578125 66.980469 269.792969 67.535156 C 270.335938 68.9375 270.574219 70.382812 270.460938 71.886719 L 270.96875 70.359375 C 271.488281 68.03125 271.757812 65.492188 273.703125 63.886719 L 275.871094 62.664062 Z M 270.460938 73.527344 C 270.460938 73.527344 270.492188 72.484375 270.460938 72.441406 C 270.085938 72 270.085938 73.964844 270.460938 73.527344 Z M 270.460938 73.527344 " fill-opacity="1" fill-rule="nonzero"/><path fill="#9e1633" d="M 174.660156 147.253906 C 175.867188 146.894531 176.058594 149.355469 176.171875 150.058594 C 178.367188 163.414062 177.742188 178.074219 178.050781 191.828125 C 178.117188 194.652344 177.6875 198.40625 178.027344 201.058594 C 178.105469 201.703125 178.929688 203.46875 179.246094 204.179688 C 180.152344 206.214844 181.347656 208.53125 182.410156 210.507812 C 182.546875 210.757812 182.863281 210.9375 182.910156 211.097656 C 183.144531 211.875 182.183594 212.507812 181.597656 211.59375 C 179.890625 209.003906 178.75 205.886719 177.203125 203.253906 C 176.421875 201.929688 174.804688 200.359375 174.558594 198.855469 C 174.476562 198.394531 174.589844 197.929688 174.535156 197.523438 C 174.035156 193.839844 173.855469 189.929688 173.96875 186.144531 C 174.082031 182.355469 174.398438 178.039062 174.523438 174.503906 C 174.738281 168.589844 174.09375 162.773438 173.957031 156.882812 C 173.890625 153.992188 174.027344 151.085938 173.957031 148.191406 C 173.925781 147.921875 174.457031 147.324219 174.648438 147.253906 Z M 174.660156 147.253906 " fill-opacity="1" fill-rule="nonzero"/><path fill="#9e1633" d="M 46.71875 112.558594 C 47.925781 112.199219 48.117188 114.664062 48.230469 115.363281 C 50.421875 128.722656 49.800781 143.378906 50.105469 157.132812 C 50.175781 159.957031 49.746094 163.710938 50.085938 166.367188 C 50.164062 167.007812 50.988281 168.773438 51.304688 169.484375 C 52.210938 171.519531 53.40625 173.835938 54.46875 175.8125 C 54.605469 176.0625 54.921875 176.242188 54.96875 176.402344 C 55.203125 177.179688 54.242188 177.8125 53.65625 176.898438 C 51.949219 174.308594 50.808594 171.191406 49.257812 168.558594 C 48.480469 167.234375 46.863281 165.664062 46.617188 164.160156 C 46.535156 163.699219 46.648438 163.234375 46.59375 162.828125 C 46.09375 159.144531 45.914062 155.234375 46.027344 151.449219 C 46.140625 147.660156 46.457031 143.34375 46.582031 139.808594 C 46.796875 133.898438 46.152344 128.078125 46.015625 122.1875 C 45.949219 119.296875 46.085938 116.390625 46.015625 113.5 C 45.980469 113.226562 46.511719 112.628906 46.707031 112.558594 Z M 46.71875 112.558594 " fill-opacity="1" fill-rule="nonzero"/><path fill="#9e1633" d="M 130.878906 14.703125 C 130.957031 14.78125 130.832031 16.339844 130.878906 16.746094 C 131.035156 18.488281 131.136719 18.691406 130.878906 20.523438 C 130.796875 21.054688 131.296875 22.964844 131.421875 23.800781 C 131.703125 25.765625 132.144531 27.597656 132.480469 29.519531 C 132.71875 30.875 132.371094 32.175781 134.234375 32.367188 C 136.425781 33.519531 138.6875 34.511719 141.183594 34.773438 C 141.613281 37.226562 139.433594 36.207031 137.78125 36.390625 C 137.285156 36.445312 136.402344 36.898438 135.90625 36.953125 C 134.425781 37.125 133.285156 36.433594 132.539062 38.199219 C 132.246094 38.898438 131.746094 40.683594 131.679688 41.40625 C 131.328125 44.988281 131.566406 48.675781 131.429688 52.269531 C 131.363281 53.972656 131.070312 55.816406 130.84375 57.648438 C 130.664062 59.171875 130.347656 61.195312 130.335938 62.835938 C 130.335938 63.253906 130.582031 63.90625 129.929688 63.785156 C 129.238281 63.242188 129.601562 62.292969 129.488281 61.511719 C 129.429688 61.09375 129.011719 60.292969 128.96875 59.863281 C 128.785156 58.234375 128.796875 56.324219 128.695312 54.707031 C 128.492188 51.523438 127.917969 48.640625 127.613281 45.5 C 127.476562 44.121094 127.734375 42.539062 127.632812 41.148438 C 127.578125 40.34375 127.183594 39.023438 127.070312 38.1875 C 126.933594 37.136719 127.261719 35.882812 126.007812 35.179688 C 125.882812 35.113281 125.101562 34.828125 125.046875 34.828125 C 124.96875 34.828125 124.785156 35.066406 124.503906 35.066406 C 123.089844 35.066406 121.710938 35.011719 120.433594 35.066406 C 118.921875 35.125 117.890625 35.394531 118.117188 33.574219 C 118.152344 33.316406 118.265625 33.507812 118.492188 33.40625 C 118.761719 33.28125 119.136719 32.976562 119.371094 32.921875 C 120.863281 32.570312 121.996094 32.296875 123.453125 31.847656 C 124.480469 31.53125 126.3125 31.125 127.183594 30.695312 C 127.363281 30.601562 128.210938 29.800781 128.300781 29.644531 C 128.4375 29.394531 128.945312 27.890625 128.980469 27.609375 C 129.09375 26.703125 128.753906 25.765625 128.753906 25.15625 C 128.753906 23.550781 129.601562 22.285156 129.519531 20.273438 C 129.453125 18.648438 129.488281 17.402344 129.792969 15.6875 C 129.835938 15.425781 129.714844 14.804688 129.792969 14.726562 C 129.828125 14.691406 130.84375 14.691406 130.878906 14.726562 Z M 130.0625 38.425781 C 130.300781 39.476562 129.894531 41.214844 130.0625 42.355469 C 130.96875 42.582031 130.5625 41.441406 130.574219 40.898438 C 130.574219 40.539062 130.605469 40.402344 130.617188 40.0625 C 130.664062 38.875 130.730469 37.429688 131.183594 36.300781 C 131.882812 34.570312 133.113281 35.585938 133.859375 34.230469 C 132.605469 33.847656 131.011719 33.292969 130.878906 31.789062 C 130.265625 32.117188 130.121094 32.851562 129.519531 33.28125 C 129.238281 33.484375 128.164062 33.824219 128.164062 34.09375 C 128.164062 34.207031 129.046875 35.351562 129.214844 35.757812 C 129.476562 36.421875 129.417969 37.011719 129.554688 37.585938 C 129.613281 37.847656 130.042969 38.300781 130.0625 38.425781 Z M 130.0625 38.425781 " fill-opacity="1" fill-rule="nonzero"/><path fill="#9e1633" d="M 78.019531 212.578125 C 78.019531 212.578125 77.761719 211.761719 77.738281 211.636719 C 77.648438 210.984375 78.113281 208.902344 78.328125 208.136719 C 80.257812 200.878906 88.058594 189.035156 92.519531 182.753906 C 94.488281 179.984375 97.6875 176.648438 99.3125 173.824219 C 99.539062 173.429688 99.730469 172.570312 99.957031 172.027344 C 100.125 171.621094 99.957031 171.429688 100.65625 171.65625 C 101.402344 171.878906 100.882812 172.625 100.828125 172.910156 C 99.585938 178.558594 96.871094 182.335938 93.886719 187.101562 C 89.820312 193.625 85.628906 200.078125 81.863281 206.789062 C 80.859375 208.585938 79.953125 210.484375 78.992188 212.316406 C 78.859375 212.621094 78.125 212.667969 78.042969 212.585938 Z M 78.019531 212.578125 " fill-opacity="1" fill-rule="nonzero"/><path fill="#9e1633" d="M 205.953125 247.269531 C 205.953125 247.269531 205.691406 246.457031 205.667969 246.332031 C 205.578125 245.675781 206.042969 243.597656 206.257812 242.828125 C 208.1875 235.574219 215.988281 223.730469 220.453125 217.445312 C 222.417969 214.679688 225.617188 211.34375 227.242188 208.519531 C 227.46875 208.125 227.660156 207.265625 227.886719 206.722656 C 228.058594 206.316406 227.886719 206.125 228.589844 206.347656 C 229.335938 206.574219 228.8125 207.320312 228.757812 207.605469 C 227.515625 213.253906 224.800781 217.027344 221.820312 221.796875 C 217.75 228.320312 213.558594 234.773438 209.792969 241.484375 C 208.789062 243.28125 207.882812 245.179688 206.921875 247.011719 C 206.789062 247.316406 206.054688 247.363281 205.972656 247.28125 Z M 205.953125 247.269531 " fill-opacity="1" fill-rule="nonzero"/><path fill="#9e1633" d="M 64.199219 211.761719 C 64.300781 211.253906 63.851562 211.128906 63.679688 210.78125 C 62.898438 209.152344 62.289062 207.320312 61.453125 205.695312 C 58.355469 199.738281 53.847656 194.6875 49.699219 189.53125 C 46.988281 186.152344 43.144531 182.140625 42.117188 177.882812 C 42.027344 177.519531 41.96875 177.191406 42.386719 177.066406 C 42.988281 176.898438 43.789062 177.871094 44.152344 178.277344 C 47.585938 182.085938 50.84375 186.347656 54.039062 190.347656 C 58.222656 195.578125 63.171875 200.957031 65.003906 207.582031 C 65.136719 208.078125 64.707031 208.316406 64.765625 208.597656 L 65.535156 210.800781 C 65.183594 211.433594 65.070312 211.910156 64.210938 211.75 Z M 64.199219 211.761719 " fill-opacity="1" fill-rule="nonzero"/><path fill="#9e1633" d="M 192.128906 246.457031 C 192.230469 245.949219 191.78125 245.824219 191.609375 245.472656 C 190.832031 243.847656 190.21875 242.015625 189.382812 240.390625 C 186.289062 234.433594 181.777344 229.382812 177.628906 224.226562 C 174.917969 220.847656 171.074219 216.835938 170.046875 212.578125 C 169.957031 212.214844 169.902344 211.886719 170.320312 211.761719 C 170.917969 211.59375 171.71875 212.566406 172.082031 212.972656 C 175.515625 216.78125 178.773438 221.039062 181.96875 225.042969 C 186.152344 230.273438 191.101562 235.652344 192.933594 242.277344 C 193.066406 242.773438 192.640625 243.011719 192.695312 243.292969 L 193.464844 245.496094 C 193.113281 246.128906 193 246.605469 192.140625 246.445312 Z M 192.128906 246.457031 " fill-opacity="1" fill-rule="nonzero"/><path fill="#9e1633" d="M 53.769531 115.816406 C 54.140625 115.703125 54.863281 115.816406 54.976562 116.210938 C 55.101562 116.664062 54.730469 116.921875 54.695312 117.285156 C 54.570312 118.539062 54.832031 119.871094 54.96875 121.09375 C 56.234375 132.40625 55.179688 143.851562 55.53125 155.515625 C 55.304688 156.386719 54.933594 158.285156 54.164062 156.589844 C 54.074219 153.515625 54.300781 150.429688 54.175781 147.355469 C 54.164062 147.050781 53.90625 146.871094 53.882812 146.566406 C 53.496094 138.699219 53.519531 130.8125 53.089844 122.96875 C 53.066406 122.664062 52.808594 122.472656 52.796875 122.175781 C 52.75 120.945312 52.605469 118.085938 52.832031 117.046875 C 52.886719 116.777344 53.507812 115.882812 53.769531 115.816406 Z M 53.769531 115.816406 " fill-opacity="1" fill-rule="nonzero"/><path fill="#9e1633" d="M 65.816406 214.203125 L 66.640625 217.3125 C 67.625 222.949219 67.636719 230.488281 66.890625 236.285156 C 66.777344 237.15625 67.136719 237.640625 67.183594 238.183594 C 67.230469 238.851562 67.261719 240.015625 67.183594 240.636719 C 67.09375 241.339844 66.257812 241.5625 66.097656 241.167969 C 66.03125 241.011719 65.90625 240.714844 65.882812 240.625 C 65.714844 239.867188 65.679688 238.195312 65.542969 237.113281 C 64.992188 232.761719 64.019531 229.199219 64.1875 224.625 C 64.1875 224.316406 64.472656 224.125 64.484375 223.832031 C 64.5625 221.109375 64.167969 217.730469 64.460938 215.140625 C 64.472656 215.015625 64.707031 214.238281 64.742188 214.203125 C 64.808594 214.136719 65.554688 214.238281 65.828125 214.203125 Z M 65.816406 214.203125 " fill-opacity="1" fill-rule="nonzero"/><path fill="#9e1633" d="M 193.757812 248.898438 L 194.582031 252.007812 C 195.566406 257.644531 195.578125 265.183594 194.832031 270.980469 C 194.71875 271.851562 195.078125 272.335938 195.125 272.878906 C 195.171875 273.546875 195.203125 274.710938 195.125 275.332031 C 195.035156 276.03125 194.199219 276.257812 194.039062 275.863281 C 193.972656 275.707031 193.847656 275.410156 193.824219 275.320312 C 193.65625 274.5625 193.621094 272.890625 193.488281 271.804688 C 192.933594 267.457031 191.960938 263.894531 192.128906 259.316406 C 192.128906 259.011719 192.414062 258.820312 192.425781 258.527344 C 192.503906 255.804688 192.109375 252.425781 192.402344 249.835938 C 192.414062 249.710938 192.648438 248.933594 192.683594 248.898438 C 192.75 248.832031 193.496094 248.933594 193.769531 248.898438 Z M 193.757812 248.898438 " fill-opacity="1" fill-rule="nonzero"/><path fill="#9e1633" d="M 79.09375 216.914062 C 79.09375 216.914062 79.367188 217.71875 79.390625 217.84375 C 79.613281 219.820312 79.492188 223.378906 79.390625 225.449219 C 79.265625 227.980469 78.496094 230.625 78.28125 233.019531 C 78.226562 233.664062 78.429688 234.636719 78.28125 235.179688 C 78.078125 235.878906 77.050781 236.332031 76.9375 234.929688 C 76.859375 233.957031 77.027344 232.894531 76.9375 231.933594 C 76.914062 231.628906 76.675781 231.449219 76.644531 231.144531 C 76.234375 227.097656 76.269531 222.417969 76.949219 218.417969 C 77.015625 218.011719 77.480469 217.390625 77.46875 216.90625 C 77.828125 216.996094 77.988281 216.691406 78.15625 216.632812 C 78.203125 216.621094 79.039062 216.871094 79.074219 216.90625 Z M 79.09375 216.914062 " fill-opacity="1" fill-rule="nonzero"/><path fill="#9e1633" d="M 207.035156 251.609375 C 207.035156 251.609375 207.308594 252.414062 207.332031 252.539062 C 207.554688 254.515625 207.433594 258.074219 207.332031 260.144531 C 207.207031 262.675781 206.4375 265.320312 206.222656 267.714844 C 206.167969 268.359375 206.371094 269.332031 206.222656 269.875 C 206.019531 270.574219 204.992188 271.027344 204.878906 269.625 C 204.777344 268.382812 204.777344 267.320312 204.640625 266.066406 C 204.1875 261.917969 204.210938 257.203125 204.910156 253.113281 C 204.980469 252.707031 205.441406 252.085938 205.433594 251.597656 C 205.792969 251.691406 205.953125 251.386719 206.121094 251.328125 C 206.167969 251.316406 207.003906 251.566406 207.035156 251.597656 Z M 207.035156 251.609375 " fill-opacity="1" fill-rule="nonzero"/><path fill="#9e1633" d="M 182.378906 169.472656 C 182.308594 169.550781 181.789062 169.472656 181.5625 169.335938 C 181.066406 169.019531 181.371094 168.027344 181.304688 167.429688 C 180.695312 162.386719 179.789062 157.335938 180.21875 152.273438 C 180.308594 151.199219 179.800781 148.722656 181.429688 148.871094 C 182.714844 148.984375 181.789062 150.304688 181.847656 150.601562 C 181.867188 150.722656 182.050781 150.816406 182.070312 150.9375 C 183.214844 156.453125 182.398438 162.320312 182.648438 167.992188 C 182.332031 168.320312 182.421875 169.417969 182.367188 169.472656 Z M 182.378906 169.472656 " fill-opacity="1" fill-rule="nonzero"/><path fill="#9e1633" d="M 263.417969 136.949219 C 262.761719 135.910156 264.109375 135.164062 265.191406 135.308594 C 265.476562 135.355469 265.621094 135.523438 265.757812 135.558594 C 266.234375 135.660156 266.808594 135.625 267.226562 135.988281 C 267.296875 136.042969 267.996094 137.039062 268.007812 137.105469 C 268.132812 137.546875 268.121094 141.414062 268.007812 141.945312 C 267.847656 142.6875 266.425781 143.820312 265.703125 143.976562 C 264.230469 144.292969 261.996094 143.660156 261.113281 142.382812 C 260.933594 142.113281 260.527344 141.152344 260.46875 140.859375 C 260.164062 139.085938 261.519531 136.8125 263.417969 136.960938 Z M 265.589844 141.832031 C 265.589844 141.832031 265.859375 141.015625 265.871094 140.890625 C 265.925781 140.40625 265.949219 138.574219 265.847656 138.191406 C 265.816406 138.066406 265.023438 137.277344 264.898438 137.242188 C 264.695312 137.1875 263.734375 137.1875 263.703125 137.230469 C 263.644531 137.289062 263.496094 138.347656 263.386719 138.675781 C 263.191406 139.242188 262.683594 139.59375 262.898438 140.328125 C 262.957031 140.507812 263.214844 140.597656 263.292969 140.746094 C 263.417969 140.960938 263.40625 141.242188 263.441406 141.277344 C 263.476562 141.308594 263.757812 141.300781 263.972656 141.421875 C 264.109375 141.503906 264.199219 141.761719 264.390625 141.820312 C 264.582031 141.875 265.542969 141.875 265.589844 141.839844 Z M 265.589844 141.832031 " fill-opacity="1" fill-rule="nonzero"/><path fill="#9e1633" d="M 231.707031 190.617188 L 232.53125 193.453125 C 232.507812 197.09375 231.875 200.539062 230.078125 203.761719 L 229.414062 204.4375 C 228.507812 203.582031 229.4375 202.472656 229.289062 201.308594 C 228.949219 198.664062 229.652344 195.851562 230.101562 193.195312 C 230.273438 192.222656 230.285156 192.167969 230.601562 191.25 C 230.679688 191.011719 230.601562 190.664062 230.644531 190.617188 C 230.703125 190.550781 231.46875 190.652344 231.730469 190.617188 Z M 231.707031 190.617188 " fill-opacity="1" fill-rule="nonzero"/><path fill="#9e1633" d="M 103.765625 155.921875 L 104.589844 158.757812 C 104.566406 162.398438 103.933594 165.84375 102.136719 169.066406 L 101.472656 169.746094 C 100.566406 168.886719 101.496094 167.777344 101.347656 166.613281 C 101.007812 163.96875 101.707031 161.15625 102.160156 158.5 C 102.332031 157.527344 102.34375 157.472656 102.660156 156.554688 C 102.738281 156.320312 102.660156 155.96875 102.703125 155.921875 C 102.761719 155.855469 103.527344 155.957031 103.789062 155.921875 Z M 103.765625 155.921875 " fill-opacity="1" fill-rule="nonzero"/><path fill="#9e1633" d="M 40.898438 16.339844 C 40.898438 16.339844 41.234375 16.351562 41.429688 16.195312 C 41.652344 16.011719 41.902344 15.59375 42.128906 15.527344 C 42.355469 15.460938 42.625 15.527344 42.886719 15.472656 C 43.597656 15.300781 43.664062 15.019531 44.511719 15.539062 C 46.085938 16.488281 46.761719 19.066406 45.902344 20.660156 C 45.269531 21.84375 43.980469 22.476562 42.636719 22.285156 C 42.410156 22.25 41.417969 21.628906 41.28125 21.472656 C 40.964844 21.097656 40.386719 19.914062 40.332031 19.4375 C 40.273438 19.007812 40.273438 17.957031 40.367188 17.5625 C 40.378906 17.492188 40.851562 16.375 40.898438 16.328125 Z M 43.054688 20.128906 C 43.371094 20.148438 43.574219 20.171875 43.867188 19.992188 C 44.003906 19.914062 44.921875 18.703125 44.941406 18.613281 C 45 18.410156 44.242188 16.953125 43.992188 16.882812 C 43.585938 16.769531 42.964844 16.929688 42.511719 16.882812 C 42.660156 17.449219 42.117188 17.84375 42.265625 18.351562 C 42.433594 18.984375 42.941406 19.496094 43.054688 20.136719 Z M 43.054688 20.128906 " fill-opacity="1" fill-rule="nonzero"/><path fill="#9e1633" d="M 247.042969 112.855469 C 247.914062 112.660156 249.597656 113.183594 249.847656 114.0625 C 249.925781 114.355469 249.925781 116.175781 249.847656 116.46875 C 249.574219 117.410156 247.304688 117.644531 246.488281 117.417969 C 246.363281 117.386719 245.304688 116.324219 245.269531 116.199219 C 244.917969 114.96875 245.765625 113.125 247.042969 112.855469 Z M 247.042969 112.855469 " fill-opacity="1" fill-rule="nonzero"/><path fill="#9e1633" d="M 231.039062 29.621094 C 231.515625 29.460938 232.191406 30.660156 232.261719 31.101562 C 232.351562 31.789062 232.304688 33.089844 232.261719 33.835938 C 232.238281 34.140625 231.988281 34.320312 231.96875 34.625 C 231.910156 35.609375 232.058594 36.636719 231.96875 37.621094 C 231.945312 37.949219 231.96875 38.457031 231.558594 38.570312 C 230.238281 38.953125 230.703125 36.964844 230.621094 36.253906 C 230.507812 35.304688 229.886719 34.003906 229.785156 33.292969 C 229.617188 32.082031 229.71875 30.0625 231.027344 29.632812 Z M 231.039062 29.621094 " fill-opacity="1" fill-rule="nonzero"/><path fill="#9e1633" d="M 229.957031 44.808594 C 230.238281 44.730469 230.632812 44.765625 230.894531 44.933594 C 231.683594 45.417969 231.355469 46.097656 231.425781 46.84375 C 231.449219 47.136719 231.664062 47.285156 231.683594 47.417969 C 231.730469 47.679688 231.210938 49.613281 231.152344 50.085938 C 231.097656 50.5625 231.277344 51.273438 231.152344 51.714844 C 231.109375 51.894531 230.273438 52.390625 230.214844 52.390625 C 230.171875 52.390625 229.582031 51.816406 229.558594 51.703125 C 229.414062 51.207031 229.617188 50.378906 229.558594 49.816406 C 229.527344 49.5 229.289062 49.316406 229.265625 49.023438 C 229.222656 48.324219 229.140625 46.019531 229.289062 45.507812 C 229.324219 45.398438 229.855469 44.855469 229.957031 44.832031 Z M 229.957031 44.808594 " fill-opacity="1" fill-rule="nonzero"/><path fill="#9e1633" d="M 227.910156 40.730469 C 227.785156 41.136719 228.273438 41.363281 228.179688 41.65625 C 227.875 42.671875 226.148438 42.265625 225.332031 42.335938 C 224.304688 42.425781 223.300781 42.785156 222.078125 42.628906 C 220.554688 42.425781 220.53125 40.761719 221.558594 40.46875 C 222.035156 40.332031 223.898438 40.402344 224.53125 40.445312 C 224.835938 40.46875 225.015625 40.71875 225.320312 40.742188 C 226.160156 40.808594 227.0625 40.671875 227.910156 40.742188 Z M 227.910156 40.730469 " fill-opacity="1" fill-rule="nonzero"/><path fill="#9e1633" d="M 234.285156 42.085938 C 233.5625 41.894531 233.921875 40.660156 234.578125 40.480469 C 234.804688 40.414062 235.074219 40.480469 235.335938 40.425781 C 236.113281 40.242188 236.667969 40.085938 237.550781 40.175781 C 237.855469 40.210938 238.046875 40.445312 238.339844 40.46875 C 238.996094 40.515625 241.765625 40.128906 241.460938 41.136719 C 241.414062 41.28125 241.066406 41.417969 241.1875 41.8125 C 240.703125 41.835938 240.21875 41.78125 239.71875 41.835938 C 239.550781 41.859375 239.472656 42.085938 239.425781 42.085938 C 238.226562 42.085938 235.164062 42.324219 234.273438 42.085938 Z M 234.285156 42.085938 " fill-opacity="1" fill-rule="nonzero"/><path fill="#9e1633" d="M 185.496094 216.644531 C 186.039062 216.488281 187.113281 217.570312 187.394531 217.988281 C 187.699219 218.441406 187.710938 218.984375 187.925781 219.355469 C 188.140625 219.730469 189.261719 220.613281 189.40625 221.132812 C 189.800781 222.511719 188.503906 223.152344 188.085938 222.183594 C 188.015625 222.035156 188.085938 221.785156 187.9375 221.515625 C 187.417969 220.554688 184.492188 218.871094 184.828125 217.617188 C 184.875 217.445312 185.328125 216.703125 185.496094 216.65625 Z M 185.496094 216.644531 " fill-opacity="1" fill-rule="nonzero"/><path fill="#9e1633" d="M 57.554688 181.949219 C 58.097656 181.792969 59.171875 182.875 59.453125 183.292969 C 59.757812 183.746094 59.769531 184.289062 59.984375 184.664062 C 60.199219 185.035156 61.316406 185.917969 61.464844 186.4375 C 61.859375 187.816406 60.5625 188.460938 60.144531 187.488281 C 60.074219 187.339844 60.144531 187.09375 59.996094 186.820312 C 59.476562 185.859375 56.550781 184.175781 56.886719 182.921875 C 56.933594 182.753906 57.386719 182.007812 57.554688 181.960938 Z M 57.554688 181.949219 " fill-opacity="1" fill-rule="nonzero"/><g clip-path="url(#d2227bd2d8)"><path fill="#9e1633" d="M 85.210938 1.433594 C 86.417969 1.085938 86.949219 2.394531 86.65625 3.421875 C 86.191406 3.945312 86.316406 6.125 85.742188 6.304688 C 85.265625 6.453125 85.1875 5.910156 85.0625 5.628906 C 84.757812 4.914062 84.894531 4.597656 84.800781 3.988281 C 84.710938 3.378906 84.316406 2.894531 84.542969 2.113281 C 84.578125 2 85.105469 1.457031 85.210938 1.433594 Z M 85.210938 1.433594 " fill-opacity="1" fill-rule="nonzero"/></g><path fill="#9e1633" d="M 79.003906 7.671875 C 79.820312 8.183594 80.914062 7.730469 81.660156 7.945312 C 81.863281 8 82.441406 8.609375 82.351562 8.871094 C 82.011719 9.945312 80.246094 9.289062 79.5 9.773438 C 78.847656 9.402344 76.867188 9.503906 77.195312 8.339844 C 77.378906 7.707031 78.597656 8.125 78.992188 7.683594 Z M 79.003906 7.671875 " fill-opacity="1" fill-rule="nonzero"/><path fill="#9e1633" d="M 92.386719 9.019531 C 92.386719 9.019531 92.417969 10.058594 92.386719 10.101562 C 92.351562 10.136719 91.570312 10.375 91.449219 10.386719 C 90.65625 10.476562 87.75 10.519531 87.503906 9.695312 C 87.277344 8.960938 88.824219 8.691406 89.265625 8.53125 C 89.898438 8.960938 90.722656 8.65625 91.449219 8.734375 C 91.570312 8.746094 92.351562 8.984375 92.386719 9.019531 Z M 92.386719 9.019531 " fill-opacity="1" fill-rule="nonzero"/><path fill="#9e1633" d="M 54.445312 4.417969 C 54.445312 4.417969 55.453125 4.089844 55.644531 4.148438 C 55.960938 4.238281 56.980469 5.546875 56.867188 5.875 C 56.808594 6.058594 56.367188 6.792969 56.1875 6.835938 C 55.609375 7.007812 54.324219 6.394531 54.175781 5.886719 C 54.097656 5.617188 54.335938 4.519531 54.445312 4.417969 Z M 54.445312 4.417969 " fill-opacity="1" fill-rule="nonzero"/><path fill="#9e1633" d="M 85.875 14.429688 C 85.875 14.429688 85.332031 14.363281 85.199219 14.703125 C 84.722656 14.691406 84.566406 12.632812 84.484375 12.160156 C 84.464844 12.035156 84.269531 11.898438 84.238281 11.59375 C 84.136719 10.703125 84.925781 10.328125 85.605469 10.769531 C 85.742188 10.859375 86.101562 11.730469 86.136719 11.886719 C 86.191406 12.148438 85.886719 12.339844 85.863281 12.65625 C 85.84375 13.03125 85.945312 14.339844 85.863281 14.429688 Z M 85.875 14.429688 " fill-opacity="1" fill-rule="nonzero"/><path fill="#9e1633" d="M 15.128906 50.753906 C 13.605469 50.902344 13.988281 50.480469 13.785156 49.523438 C 13.695312 49.125 13.457031 48.945312 13.503906 48.449219 C 13.59375 47.339844 15.1875 47.726562 15.402344 48.46875 C 15.480469 48.730469 15.117188 48.945312 15.117188 49.261719 C 15.117188 49.53125 15.355469 49.703125 15.355469 49.804688 C 15.355469 49.917969 14.972656 50.359375 15.140625 50.753906 Z M 15.128906 50.753906 " fill-opacity="1" fill-rule="nonzero"/><path fill="#9e1633" d="M 15.140625 56.992188 C 14.871094 57.261719 13.910156 56.675781 13.808594 56.300781 C 13.695312 55.882812 13.683594 54.4375 14.203125 54.289062 C 15.300781 53.972656 15.097656 55.207031 15.140625 55.78125 C 15.164062 56.007812 15.289062 56.144531 15.300781 56.1875 C 15.300781 56.371094 15.1875 56.96875 15.152344 56.992188 Z M 15.140625 56.992188 " fill-opacity="1" fill-rule="nonzero"/><path fill="#9e1633" d="M 12.699219 52.382812 C 12.800781 52.472656 12.472656 53.679688 12.429688 53.738281 C 12.351562 53.816406 10.417969 53.882812 10.257812 53.332031 C 10.136719 52.910156 11.164062 52.222656 11.503906 52.132812 C 11.707031 52.074219 12.65625 52.347656 12.699219 52.390625 Z M 12.699219 52.382812 " fill-opacity="1" fill-rule="nonzero"/><path fill="#9e1633" d="M 15.953125 53.738281 C 15.953125 53.738281 15.910156 52.957031 15.953125 52.789062 C 16.113281 52.199219 17.921875 52.175781 18.113281 52.789062 C 18.339844 53.511719 16.203125 53.996094 15.945312 53.738281 Z M 15.953125 53.738281 " fill-opacity="1" fill-rule="nonzero"/></g></g></svg>