<svg xmlns="http://www.w3.org/2000/svg" xmlns:xlink="http://www.w3.org/1999/xlink" width="945" zoomAndPan="magnify" viewBox="0 0 708.75 708.749996" height="945" preserveAspectRatio="xMidYMid meet" version="1.0"><defs><clipPath id="6314f2b019"><path d="M 0.550781 1 L 283.984375 1 L 283.984375 265.628906 L 0.550781 265.628906 Z M 0.550781 1 " clip-rule="nonzero"/></clipPath><clipPath id="0ece3167c5"><rect x="0" width="285" y="0" height="267"/></clipPath></defs><g transform="matrix(1, 0, 0, 1, 212, 221)"><g clip-path="url(#0ece3167c5)"><g clip-path="url(#6314f2b019)"><path fill="#9e1633" d="M 283.515625 92.816406 C 283.25 90.171875 282.882812 87.582031 282.40625 84.996094 C 282.140625 83.621094 281.824219 82.246094 281.453125 80.925781 C 281.03125 79.65625 280.554688 78.386719 279.921875 77.226562 C 279.605469 76.644531 279.289062 76.007812 278.917969 75.480469 C 278.707031 75.214844 278.546875 74.953125 278.335938 74.6875 C 278.125 74.425781 277.914062 74.160156 277.648438 73.894531 C 276.804688 72.945312 275.800781 72.152344 274.742188 71.464844 C 272.417969 69.929688 269.773438 68.820312 267.078125 68.082031 C 265.703125 67.660156 264.277344 67.34375 262.902344 67.078125 C 261.53125 66.8125 260.15625 66.550781 258.730469 66.390625 C 257.25 66.179688 255.769531 66.019531 254.234375 65.914062 C 252.757812 65.757812 251.277344 65.703125 249.796875 65.597656 C 246.941406 65.4375 244.035156 65.28125 241.183594 65.226562 C 235.261719 65.070312 229.34375 65.070312 223.425781 65.070312 C 217.453125 65.070312 211.480469 65.121094 205.507812 65.226562 C 204.980469 65.226562 204.449219 65.226562 203.921875 65.226562 C 204.398438 64.910156 204.875 64.59375 205.296875 64.277344 C 206.671875 63.324219 208.042969 62.320312 209.3125 61.265625 C 210.738281 60.152344 212.113281 58.9375 213.433594 57.722656 C 214.703125 56.558594 215.867188 55.34375 217.027344 54.023438 C 218.191406 52.703125 219.300781 51.328125 220.304688 49.847656 C 220.304688 49.847656 220.253906 49.902344 220.253906 49.902344 C 220.675781 49.320312 221.046875 48.683594 221.46875 48.050781 C 221.839844 47.417969 222.261719 46.78125 222.578125 46.148438 C 222.949219 45.515625 223.265625 44.828125 223.582031 44.191406 C 223.742188 43.875 223.847656 43.613281 224.003906 43.292969 C 224.109375 43.03125 224.269531 42.714844 224.375 42.449219 C 224.535156 42.027344 224.691406 41.601562 224.851562 41.234375 C 225.007812 40.757812 225.167969 40.230469 225.328125 39.753906 C 225.589844 38.90625 225.800781 38.0625 225.960938 37.214844 C 226.171875 36.316406 226.277344 35.417969 226.382812 34.46875 C 226.488281 33.570312 226.542969 32.617188 226.542969 31.71875 C 226.542969 31.296875 226.542969 30.875 226.488281 30.398438 C 226.488281 30.132812 226.4375 29.871094 226.4375 29.554688 C 226.4375 29.394531 226.4375 29.234375 226.382812 29.078125 C 226.277344 28.125 226.171875 27.175781 225.960938 26.222656 C 225.855469 25.855469 225.800781 25.429688 225.695312 25.0625 C 225.589844 24.585938 225.484375 24.164062 225.328125 23.6875 C 225.222656 23.265625 225.0625 22.894531 224.957031 22.472656 C 224.851562 22.207031 224.796875 21.941406 224.691406 21.730469 C 224.640625 21.574219 224.585938 21.414062 224.535156 21.253906 C 224.375 20.832031 224.164062 20.355469 224.003906 19.933594 C 223.792969 19.511719 223.636719 19.089844 223.425781 18.664062 C 223.054688 17.871094 222.578125 17.082031 222.15625 16.339844 C 221.890625 15.917969 221.628906 15.546875 221.363281 15.125 C 221.097656 14.703125 220.835938 14.332031 220.570312 13.960938 C 220.464844 13.804688 220.304688 13.59375 220.148438 13.433594 C 220.042969 13.328125 219.9375 13.167969 219.828125 13.0625 C 219.511719 12.695312 219.195312 12.324219 218.878906 11.953125 C 218.71875 11.796875 218.5625 11.636719 218.457031 11.425781 C 218.296875 11.265625 218.085938 11.054688 217.925781 10.898438 C 217.820312 10.789062 217.664062 10.632812 217.558594 10.527344 C 217.398438 10.367188 217.242188 10.210938 217.027344 10.050781 C 216.710938 9.734375 216.34375 9.417969 216.023438 9.152344 C 215.65625 8.835938 215.285156 8.570312 214.914062 8.253906 C 214.542969 7.988281 214.175781 7.726562 213.804688 7.460938 C 213.59375 7.304688 213.382812 7.195312 213.171875 7.039062 C 213.011719 6.933594 212.855469 6.828125 212.746094 6.773438 C 212.324219 6.5625 211.957031 6.296875 211.53125 6.085938 C 211.058594 5.824219 210.632812 5.613281 210.160156 5.398438 C 209.734375 5.1875 209.367188 5.03125 208.941406 4.871094 C 208.730469 4.765625 208.574219 4.714844 208.359375 4.660156 C 208.148438 4.554688 207.9375 4.5 207.726562 4.394531 C 206.933594 4.132812 206.089844 3.816406 205.296875 3.601562 C 205.03125 3.550781 204.765625 3.445312 204.503906 3.390625 C 204.292969 3.339844 204.082031 3.285156 203.921875 3.285156 C 203.65625 3.234375 203.445312 3.179688 203.183594 3.128906 C 202.917969 3.074219 202.652344 3.023438 202.390625 2.96875 C 201.492188 2.808594 200.59375 2.703125 199.746094 2.546875 C 199.324219 2.492188 198.902344 2.441406 198.425781 2.386719 C 197.949219 2.335938 197.421875 2.335938 196.945312 2.28125 C 196.523438 2.230469 196.046875 2.230469 195.625 2.230469 C 195.203125 2.230469 194.726562 2.230469 194.304688 2.230469 C 193.40625 2.230469 192.453125 2.28125 191.554688 2.386719 C 190.707031 2.441406 189.863281 2.546875 189.070312 2.652344 C 188.226562 2.757812 187.328125 2.917969 186.480469 3.128906 C 185.636719 3.285156 184.789062 3.496094 183.945312 3.707031 C 183.519531 3.816406 183.097656 3.921875 182.675781 4.078125 C 182.253906 4.238281 181.777344 4.34375 181.355469 4.5 C 180.929688 4.660156 180.507812 4.820312 180.03125 4.925781 C 179.558594 5.082031 179.082031 5.292969 178.605469 5.453125 C 178.183594 5.613281 177.761719 5.769531 177.390625 5.980469 C 176.96875 6.140625 176.597656 6.351562 176.175781 6.511719 C 175.382812 6.878906 174.589844 7.304688 173.742188 7.726562 C 173.003906 8.09375 172.265625 8.464844 171.578125 8.886719 C 170.785156 9.363281 169.992188 9.839844 169.25 10.316406 C 168.828125 10.578125 168.40625 10.898438 167.984375 11.160156 C 167.984375 11.160156 167.929688 11.160156 167.929688 11.214844 C 167.558594 11.476562 167.191406 11.742188 166.820312 12.007812 C 166.449219 12.269531 166.132812 12.535156 165.761719 12.800781 C 165.074219 13.328125 164.441406 13.910156 163.753906 14.4375 C 162.433594 15.601562 161.113281 16.816406 159.949219 18.136719 C 159.316406 18.824219 158.734375 19.457031 158.152344 20.144531 C 157.625 20.832031 157.042969 21.46875 156.515625 22.207031 C 155.984375 22.945312 155.40625 23.6875 154.875 24.480469 C 154.398438 25.21875 153.871094 25.960938 153.449219 26.699219 C 152.972656 27.4375 152.550781 28.230469 152.128906 29.023438 C 151.652344 29.871094 151.230469 30.714844 150.804688 31.613281 C 150.382812 32.40625 150.011719 33.253906 149.644531 34.046875 C 149.273438 34.785156 148.957031 35.523438 148.640625 36.316406 C 147.953125 37.902344 147.316406 39.542969 146.683594 41.179688 C 146.367188 42.078125 146.050781 42.976562 145.734375 43.929688 C 145.46875 44.773438 145.203125 45.621094 144.992188 46.464844 C 144.941406 46.730469 144.835938 46.941406 144.78125 47.207031 C 144.515625 46.78125 144.304688 46.359375 144.042969 45.9375 C 143.089844 44.351562 142.085938 42.765625 141.027344 41.234375 C 139.917969 39.59375 138.808594 37.957031 137.644531 36.425781 C 136.484375 34.839844 135.214844 33.304688 133.945312 31.824219 C 132.625 30.292969 131.25 28.8125 129.824219 27.386719 C 129.507812 27.070312 129.136719 26.699219 128.820312 26.382812 C 128.503906 26.066406 128.1875 25.746094 127.816406 25.429688 C 127.128906 24.796875 126.390625 24.109375 125.648438 23.476562 C 124.117188 22.152344 122.582031 20.886719 121 19.671875 C 119.414062 18.507812 117.878906 17.34375 116.242188 16.234375 C 115.449219 15.707031 114.601562 15.125 113.757812 14.597656 C 112.859375 14.066406 112.011719 13.488281 111.113281 12.957031 C 110.214844 12.429688 109.371094 11.953125 108.472656 11.476562 C 107.574219 11.003906 106.621094 10.527344 105.722656 10.050781 C 104.824219 9.574219 103.925781 9.152344 103.027344 8.730469 C 102.078125 8.308594 101.125 7.882812 100.226562 7.460938 C 99.328125 7.089844 98.429688 6.722656 97.53125 6.351562 C 97.109375 6.191406 96.632812 6.035156 96.210938 5.875 C 95.789062 5.71875 95.3125 5.558594 94.890625 5.398438 C 93.9375 5.082031 93.039062 4.765625 92.089844 4.5 C 91.085938 4.183594 90.082031 3.921875 89.023438 3.601562 C 88.019531 3.339844 87.066406 3.074219 86.0625 2.863281 C 85.113281 2.652344 84.109375 2.441406 83.105469 2.230469 C 82.097656 2.019531 81.042969 1.859375 80.039062 1.699219 C 79.828125 1.648438 79.617188 1.648438 79.457031 1.59375 C 79.191406 1.542969 78.929688 1.542969 78.71875 1.488281 C 78.292969 1.4375 77.820312 1.382812 77.394531 1.332031 C 76.867188 1.277344 76.390625 1.226562 75.863281 1.226562 C 75.28125 1.171875 74.699219 1.171875 74.171875 1.171875 C 73.273438 1.121094 72.320312 1.171875 71.371094 1.226562 C 70.367188 1.277344 69.308594 1.382812 68.304688 1.542969 C 68.042969 1.59375 67.828125 1.648438 67.566406 1.648438 C 67.300781 1.699219 67.035156 1.753906 66.71875 1.804688 C 66.191406 1.910156 65.714844 2.070312 65.238281 2.230469 C 64.765625 2.386719 64.289062 2.546875 63.8125 2.703125 C 63.601562 2.808594 63.335938 2.863281 63.125 2.96875 C 62.914062 3.074219 62.703125 3.179688 62.492188 3.285156 C 62.226562 3.445312 61.964844 3.550781 61.699219 3.707031 C 61.488281 3.816406 61.277344 3.921875 61.066406 4.078125 C 60.640625 4.34375 60.167969 4.605469 59.796875 4.925781 C 59.425781 5.1875 59.054688 5.503906 58.6875 5.824219 C 58.316406 6.191406 57.894531 6.5625 57.578125 6.933594 C 56.890625 7.671875 56.308594 8.519531 55.78125 9.363281 C 55.515625 9.839844 55.199219 10.261719 54.988281 10.738281 C 54.722656 11.214844 54.511719 11.6875 54.300781 12.21875 C 54.089844 12.695312 53.929688 13.117188 53.769531 13.59375 C 53.664062 13.855469 53.613281 14.121094 53.507812 14.4375 C 53.453125 14.648438 53.402344 14.859375 53.347656 15.070312 C 53.136719 16.023438 52.976562 17.027344 52.871094 17.980469 C 52.765625 19.035156 52.714844 20.039062 52.714844 21.097656 C 52.714844 22.101562 52.765625 23.105469 52.871094 24.054688 C 52.976562 25.007812 53.085938 26.011719 53.296875 26.964844 C 53.507812 27.914062 53.71875 28.917969 53.984375 29.871094 C 54.246094 30.820312 54.511719 31.773438 54.828125 32.722656 C 55.144531 33.675781 55.515625 34.625 55.886719 35.578125 C 56.253906 36.53125 56.625 37.429688 57.101562 38.328125 C 57.3125 38.75 57.472656 39.121094 57.683594 39.542969 C 57.945312 40.019531 58.15625 40.492188 58.421875 40.96875 C 58.898438 41.816406 59.375 42.660156 59.847656 43.507812 C 60.378906 44.351562 60.90625 45.25 61.433594 46.09375 C 62.015625 46.941406 62.542969 47.839844 63.179688 48.683594 C 63.707031 49.476562 64.289062 50.269531 64.871094 51.011719 C 65.1875 51.433594 65.503906 51.855469 65.820312 52.277344 C 66.085938 52.648438 66.402344 53.019531 66.667969 53.390625 C 67.300781 54.128906 67.882812 54.921875 68.570312 55.609375 C 69.257812 56.402344 69.945312 57.140625 70.683594 57.882812 C 71.421875 58.621094 72.164062 59.359375 72.902344 60.046875 C 73.589844 60.683594 74.332031 61.371094 75.015625 61.949219 C 75.808594 62.636719 76.601562 63.273438 77.449219 63.90625 C 78.1875 64.488281 78.929688 65.015625 79.722656 65.542969 C 80.144531 65.808594 80.515625 66.074219 80.9375 66.335938 C 75.652344 66.65625 70.3125 66.972656 65.027344 67.5 C 59.480469 68.027344 53.929688 68.714844 48.328125 69.296875 C 45.367188 69.613281 42.410156 69.878906 39.449219 70.144531 C 36.753906 70.40625 34.003906 70.617188 31.308594 70.9375 C 30.09375 71.042969 28.878906 71.199219 27.664062 71.359375 C 26.289062 71.515625 24.96875 71.726562 23.59375 71.941406 C 22.324219 72.152344 21.054688 72.308594 19.839844 72.574219 C 18.730469 72.785156 17.621094 72.996094 16.5625 73.261719 C 15.769531 73.472656 14.976562 73.683594 14.238281 74 C 13.65625 74.210938 13.128906 74.476562 12.601562 74.792969 C 12.125 75.058594 11.703125 75.429688 11.277344 75.796875 C 11.015625 76.0625 10.75 76.328125 10.484375 76.644531 C 10.378906 76.75 10.273438 76.90625 10.167969 77.011719 C 9.851562 77.277344 9.535156 77.542969 9.269531 77.804688 C 8.792969 78.28125 8.320312 78.757812 7.894531 79.285156 C 7.367188 79.921875 6.890625 80.609375 6.46875 81.292969 C 5.992188 82.085938 5.570312 82.878906 5.148438 83.726562 C 4.777344 84.464844 4.40625 85.257812 4.089844 86.050781 C 3.617188 87.320312 3.140625 88.589844 2.769531 89.910156 C 2.398438 91.179688 2.082031 92.5 1.871094 93.765625 C 1.605469 95.089844 1.394531 96.464844 1.238281 97.785156 C 1.078125 99.105469 0.972656 100.480469 0.867188 101.855469 C 0.601562 104.390625 0.550781 107.140625 0.550781 109.886719 C 0.550781 111.050781 0.601562 112.160156 0.65625 113.324219 C 0.707031 114.644531 0.8125 116.019531 0.972656 117.339844 C 1.078125 117.921875 1.183594 118.5 1.289062 119.082031 C 1.34375 119.292969 1.394531 119.558594 1.449219 119.769531 C 1.5 120.035156 1.605469 120.300781 1.710938 120.511719 C 2.082031 121.515625 2.609375 122.519531 3.402344 123.257812 C 3.667969 123.46875 3.933594 123.734375 4.195312 123.894531 C 4.460938 124.050781 4.671875 124.261719 4.9375 124.367188 C 5.519531 124.683594 6.097656 124.949219 6.734375 125.109375 C 7.15625 125.214844 7.578125 125.320312 7.949219 125.320312 C 8.214844 125.371094 8.53125 125.371094 8.792969 125.371094 C 8.953125 125.371094 9.113281 125.371094 9.269531 125.371094 C 9.691406 125.371094 10.117188 125.320312 10.539062 125.320312 C 11.859375 125.214844 13.179688 124.949219 14.449219 124.632812 C 14.503906 124.84375 14.554688 125.054688 14.554688 125.265625 C 14.820312 126.640625 15.03125 128.015625 15.242188 129.441406 C 15.507812 131.34375 15.71875 133.195312 15.984375 135.097656 C 16.667969 140.222656 17.25 145.351562 17.832031 150.476562 C 18.414062 155.601562 18.890625 160.730469 19.417969 165.910156 C 19.945312 171.195312 20.476562 176.480469 21.003906 181.710938 C 21.53125 186.996094 22.113281 192.230469 22.746094 197.515625 C 23.328125 202.589844 24.015625 207.660156 24.597656 212.789062 C 25.179688 217.863281 25.8125 222.988281 26.445312 228.0625 C 26.765625 230.546875 27.082031 233.082031 27.398438 235.566406 C 27.714844 237.945312 27.980469 240.324219 28.351562 242.703125 C 28.507812 243.917969 28.71875 245.132812 28.929688 246.347656 C 29.140625 247.40625 29.300781 248.515625 29.617188 249.519531 C 29.777344 250.046875 29.933594 250.578125 30.148438 251.105469 C 30.304688 251.582031 30.515625 252.058594 30.726562 252.480469 C 31.257812 253.535156 31.890625 254.488281 32.683594 255.332031 C 33.160156 255.808594 33.636719 256.285156 34.164062 256.707031 C 34.425781 256.867188 34.640625 257.078125 34.902344 257.238281 C 35.113281 257.394531 35.378906 257.554688 35.644531 257.710938 C 35.960938 257.921875 36.332031 258.082031 36.648438 258.242188 C 36.910156 258.398438 37.175781 258.503906 37.441406 258.609375 C 37.914062 258.820312 38.445312 259.035156 38.921875 259.191406 C 39.605469 259.402344 40.242188 259.667969 40.929688 259.878906 C 41.511719 260.039062 42.039062 260.195312 42.621094 260.355469 C 43.835938 260.671875 45.105469 260.9375 46.371094 261.199219 C 51.5 262.152344 56.679688 262.785156 61.859375 263.207031 C 64.554688 263.421875 67.195312 263.632812 69.890625 263.738281 C 72.535156 263.894531 75.125 264 77.765625 264.105469 C 83.15625 264.320312 88.601562 264.53125 93.992188 264.6875 C 99.277344 264.847656 104.5625 265.003906 109.847656 265.113281 C 115.078125 265.21875 120.3125 265.269531 125.597656 265.324219 C 129.558594 265.375 133.578125 265.375 137.539062 265.375 C 139.019531 265.375 140.449219 265.375 141.925781 265.375 C 147.160156 265.324219 152.390625 265.269531 157.625 265.058594 C 168.40625 264.6875 179.238281 264.160156 190.023438 263.527344 C 195.464844 263.207031 200.910156 262.890625 206.300781 262.574219 C 211.585938 262.308594 216.921875 262.046875 222.207031 261.730469 C 224.851562 261.570312 227.546875 261.410156 230.1875 261.253906 C 231.457031 261.199219 232.671875 261.09375 233.941406 260.988281 C 234.046875 260.988281 234.152344 260.988281 234.257812 260.988281 C 234.257812 260.988281 234.3125 260.988281 234.3125 260.988281 C 234.363281 260.988281 234.417969 260.988281 234.417969 260.988281 C 234.46875 260.988281 234.523438 260.988281 234.574219 260.988281 C 234.628906 260.988281 234.628906 260.988281 234.679688 260.988281 C 234.785156 260.988281 234.839844 260.988281 234.945312 260.988281 C 234.945312 260.988281 234.945312 260.988281 235 260.988281 C 236.160156 260.9375 237.269531 260.832031 238.433594 260.726562 C 243.242188 260.355469 248.105469 259.984375 252.914062 259.296875 C 255.027344 258.980469 257.195312 258.609375 259.257812 258.027344 C 259.996094 257.816406 260.738281 257.605469 261.425781 257.289062 C 262.003906 257.078125 262.535156 256.8125 263.0625 256.550781 C 263.539062 256.285156 264.015625 255.96875 264.4375 255.546875 C 264.964844 255.070312 265.335938 254.433594 265.597656 253.855469 C 265.8125 253.429688 265.96875 252.957031 266.074219 252.480469 C 266.234375 251.898438 266.339844 251.316406 266.496094 250.734375 C 266.710938 249.625 266.867188 248.515625 266.972656 247.40625 C 267.183594 245.027344 267.289062 242.648438 267.34375 240.324219 C 267.394531 237.789062 267.34375 235.199219 267.289062 232.660156 C 267.183594 227.324219 267.027344 222.039062 266.867188 216.699219 C 266.761719 211.519531 266.65625 206.339844 266.601562 201.160156 C 266.550781 195.929688 266.496094 190.75 266.496094 185.515625 C 266.496094 180.335938 266.550781 175.105469 266.550781 169.925781 C 266.601562 164.640625 266.601562 159.355469 266.710938 154.070312 C 266.761719 148.945312 266.867188 143.871094 266.972656 138.742188 C 267.078125 133.988281 267.132812 129.230469 267.183594 124.472656 C 267.183594 122.359375 267.238281 120.246094 267.238281 118.132812 C 267.238281 117.390625 267.238281 116.652344 267.238281 115.964844 C 267.238281 115.648438 267.238281 115.332031 267.238281 115.015625 C 267.238281 114.695312 267.238281 114.378906 267.183594 114.113281 C 267.554688 114.0625 267.976562 114.0625 268.347656 114.007812 C 269.667969 113.902344 271.042969 113.746094 272.363281 113.585938 C 273.632812 113.429688 274.847656 113.269531 276.117188 113.058594 C 276.804688 112.953125 277.542969 112.792969 278.179688 112.53125 C 278.757812 112.316406 279.339844 112.054688 279.867188 111.683594 C 280.449219 111.261719 280.980469 110.785156 281.453125 110.203125 C 281.878906 109.621094 282.246094 108.988281 282.566406 108.355469 C 282.828125 107.773438 283.09375 107.140625 283.25 106.503906 C 283.410156 105.976562 283.515625 105.394531 283.621094 104.867188 C 283.832031 103.597656 283.9375 102.277344 283.9375 100.957031 C 283.886719 98.207031 283.78125 95.511719 283.515625 92.816406 Z M 146.578125 52.648438 C 146.632812 52.226562 146.738281 51.804688 146.789062 51.328125 C 147.054688 49.953125 147.371094 48.578125 147.742188 47.257812 C 147.953125 46.519531 148.164062 45.832031 148.375 45.089844 C 148.585938 44.40625 148.851562 43.71875 149.0625 43.03125 C 149.21875 42.660156 149.328125 42.238281 149.484375 41.867188 C 150.121094 40.175781 150.804688 38.539062 151.492188 36.898438 C 152.179688 35.367188 152.921875 33.78125 153.660156 32.300781 C 153.925781 31.71875 154.242188 31.191406 154.558594 30.609375 C 154.824219 30.082031 155.085938 29.605469 155.402344 29.078125 C 155.722656 28.550781 156.089844 27.96875 156.410156 27.4375 C 156.726562 26.964844 157.042969 26.488281 157.308594 26.066406 C 157.625 25.640625 157.941406 25.167969 158.257812 24.742188 C 158.628906 24.269531 159 23.792969 159.367188 23.316406 C 159.738281 22.839844 160.109375 22.367188 160.476562 21.941406 C 160.796875 21.574219 161.058594 21.253906 161.375 20.886719 C 161.695312 20.570312 161.957031 20.199219 162.273438 19.882812 C 162.59375 19.5625 162.910156 19.195312 163.226562 18.878906 C 163.542969 18.558594 163.859375 18.242188 164.230469 17.925781 C 164.546875 17.609375 164.917969 17.292969 165.234375 17.027344 C 165.550781 16.761719 165.867188 16.445312 166.1875 16.183594 C 166.554688 15.863281 166.925781 15.546875 167.296875 15.285156 C 167.664062 14.964844 168.035156 14.703125 168.457031 14.386719 C 168.828125 14.121094 169.25 13.804688 169.621094 13.539062 C 169.570312 13.59375 169.515625 13.59375 169.460938 13.644531 C 169.886719 13.378906 170.308594 13.0625 170.730469 12.800781 C 170.785156 12.800781 170.785156 12.746094 170.835938 12.746094 C 170.785156 12.800781 170.730469 12.800781 170.679688 12.851562 C 171.101562 12.589844 171.523438 12.324219 171.945312 12.058594 C 172.15625 11.902344 172.421875 11.796875 172.632812 11.636719 C 172.84375 11.53125 173.054688 11.371094 173.269531 11.265625 C 173.691406 11.003906 174.167969 10.789062 174.589844 10.527344 C 175.011719 10.316406 175.433594 10.105469 175.859375 9.890625 C 176.226562 9.679688 176.652344 9.523438 177.019531 9.3125 C 177.230469 9.207031 177.441406 9.101562 177.65625 9.046875 C 177.867188 8.941406 178.078125 8.835938 178.289062 8.78125 C 178.5 8.675781 178.710938 8.625 178.921875 8.519531 C 179.132812 8.414062 179.347656 8.308594 179.558594 8.253906 C 179.980469 8.09375 180.402344 7.9375 180.878906 7.777344 C 180.878906 7.777344 180.824219 7.777344 180.824219 7.777344 C 181.300781 7.621094 181.777344 7.460938 182.253906 7.304688 C 182.886719 7.089844 183.46875 6.933594 184.101562 6.773438 C 184.683594 6.617188 185.316406 6.457031 185.953125 6.296875 C 186.429688 6.191406 186.851562 6.085938 187.328125 5.980469 C 187.539062 5.929688 187.800781 5.875 188.011719 5.875 C 188.226562 5.824219 188.4375 5.769531 188.648438 5.769531 C 189.125 5.71875 189.546875 5.613281 190.023438 5.558594 C 190.496094 5.503906 190.972656 5.453125 191.394531 5.398438 C 191.820312 5.347656 192.242188 5.347656 192.613281 5.292969 C 193.035156 5.292969 193.511719 5.242188 193.933594 5.242188 C 194.144531 5.242188 194.410156 5.242188 194.621094 5.242188 C 194.832031 5.242188 195.09375 5.242188 195.308594 5.242188 C 195.519531 5.242188 195.78125 5.242188 195.992188 5.242188 C 196.207031 5.242188 196.46875 5.242188 196.679688 5.242188 C 197.050781 5.242188 197.472656 5.292969 197.84375 5.292969 C 198.265625 5.347656 198.691406 5.398438 199.113281 5.398438 C 199.535156 5.453125 199.957031 5.503906 200.378906 5.558594 C 201.171875 5.664062 201.914062 5.824219 202.707031 5.929688 C 202.863281 5.980469 202.96875 5.980469 203.128906 6.035156 C 203.289062 6.085938 203.5 6.085938 203.65625 6.140625 C 204.027344 6.246094 204.398438 6.296875 204.765625 6.40625 C 205.136719 6.511719 205.507812 6.617188 205.824219 6.722656 C 206.140625 6.828125 206.40625 6.933594 206.722656 7.039062 C 207.199219 7.25 207.726562 7.410156 208.203125 7.621094 C 208.679688 7.832031 209.101562 8.042969 209.523438 8.253906 C 209.945312 8.464844 210.371094 8.675781 210.738281 8.941406 C 211.164062 9.207031 211.585938 9.46875 212.007812 9.734375 C 212.378906 10 212.800781 10.261719 213.171875 10.578125 C 213.539062 10.84375 213.910156 11.160156 214.28125 11.476562 C 214.757812 11.902344 215.230469 12.324219 215.65625 12.746094 C 215.867188 12.957031 216.128906 13.222656 216.34375 13.488281 C 216.554688 13.699219 216.710938 13.910156 216.921875 14.121094 C 217.242188 14.542969 217.609375 14.914062 217.925781 15.335938 C 218.246094 15.707031 218.507812 16.128906 218.773438 16.5 C 218.929688 16.761719 219.089844 17.027344 219.300781 17.292969 C 219.460938 17.554688 219.671875 17.871094 219.828125 18.136719 C 219.988281 18.402344 220.199219 18.71875 220.304688 18.984375 C 220.464844 19.246094 220.621094 19.5625 220.726562 19.828125 C 220.835938 20.09375 220.992188 20.355469 221.097656 20.621094 C 221.257812 20.9375 221.363281 21.253906 221.519531 21.519531 C 221.628906 21.835938 221.785156 22.152344 221.890625 22.472656 C 221.996094 22.734375 222.101562 23 222.207031 23.265625 C 222.3125 23.527344 222.417969 23.84375 222.472656 24.164062 C 222.578125 24.480469 222.683594 24.796875 222.738281 25.113281 C 222.789062 25.429688 222.894531 25.746094 222.949219 26.066406 C 223 26.328125 223.054688 26.59375 223.105469 26.859375 C 223.160156 27.175781 223.210938 27.4375 223.265625 27.757812 C 223.316406 28.074219 223.371094 28.390625 223.425781 28.707031 C 223.476562 29.023438 223.53125 29.339844 223.53125 29.660156 C 223.53125 29.921875 223.582031 30.1875 223.582031 30.398438 C 223.582031 30.875 223.636719 31.296875 223.636719 31.773438 C 223.636719 32.25 223.636719 32.671875 223.582031 33.09375 C 223.53125 33.621094 223.53125 34.152344 223.425781 34.734375 C 223.371094 35.050781 223.371094 35.3125 223.316406 35.632812 C 223.265625 35.894531 223.210938 36.160156 223.160156 36.425781 C 223.054688 36.953125 222.949219 37.535156 222.789062 38.0625 C 222.683594 38.328125 222.632812 38.644531 222.527344 38.90625 C 222.417969 39.171875 222.367188 39.4375 222.261719 39.699219 C 222.15625 40.019531 222.050781 40.335938 221.890625 40.652344 C 221.734375 41.023438 221.574219 41.390625 221.414062 41.761719 C 221.152344 42.394531 220.835938 42.976562 220.570312 43.613281 C 219.882812 44.933594 219.144531 46.203125 218.351562 47.417969 C 218.191406 47.679688 217.980469 47.945312 217.820312 48.210938 C 217.875 48.15625 217.875 48.105469 217.925781 48.050781 C 217.453125 48.738281 216.976562 49.371094 216.5 50.058594 C 216.023438 50.695312 215.550781 51.273438 215.019531 51.855469 C 214.332031 52.648438 213.59375 53.441406 212.855469 54.183594 C 212.0625 54.976562 211.214844 55.714844 210.421875 56.507812 C 210.160156 56.773438 209.839844 56.984375 209.578125 57.246094 C 207.039062 59.414062 204.34375 61.371094 201.542969 63.273438 C 201.015625 63.589844 200.539062 63.960938 200.011719 64.277344 C 199.746094 64.433594 199.480469 64.59375 199.21875 64.753906 C 198.953125 64.910156 198.636719 65.070312 198.371094 65.28125 C 194.671875 65.332031 190.921875 65.386719 187.222656 65.4375 C 181.671875 65.492188 176.121094 65.542969 170.574219 65.542969 C 170.730469 65.4375 170.890625 65.332031 170.996094 65.226562 C 171.945312 64.539062 172.898438 63.855469 173.847656 63.21875 C 173.796875 63.21875 173.796875 63.273438 173.742188 63.273438 C 173.847656 63.167969 173.953125 63.113281 174.113281 63.007812 C 174.90625 62.480469 175.699219 61.949219 176.492188 61.421875 C 176.492188 61.421875 176.492188 61.421875 176.4375 61.421875 C 176.4375 61.421875 176.4375 61.421875 176.492188 61.421875 C 176.542969 61.421875 176.597656 61.371094 176.597656 61.316406 C 176.652344 61.265625 176.757812 61.210938 176.808594 61.160156 C 176.863281 61.105469 176.914062 61.105469 176.96875 61.050781 C 177.074219 60.945312 177.230469 60.894531 177.335938 60.789062 C 177.550781 60.628906 177.8125 60.472656 178.023438 60.3125 C 178.976562 59.625 179.980469 58.886719 180.878906 58.144531 C 181.40625 57.722656 181.9375 57.246094 182.410156 56.773438 C 182.835938 56.347656 183.257812 55.925781 183.679688 55.503906 C 184.101562 55.027344 184.523438 54.550781 184.894531 54.023438 C 185.105469 53.757812 185.316406 53.441406 185.53125 53.125 C 185.6875 52.859375 185.847656 52.648438 186.003906 52.386719 C 186.320312 51.804688 186.640625 51.222656 186.851562 50.589844 C 187.113281 49.953125 187.273438 49.320312 187.484375 48.683594 C 187.589844 48.367188 187.644531 48.050781 187.695312 47.734375 C 187.75 47.417969 187.800781 47.101562 187.800781 46.78125 C 187.855469 46.148438 187.90625 45.460938 187.855469 44.828125 C 187.800781 44.140625 187.800781 43.507812 187.644531 42.820312 C 187.539062 42.449219 187.484375 42.027344 187.378906 41.65625 C 187.273438 41.339844 187.222656 41.023438 187.0625 40.703125 C 186.851562 40.070312 186.585938 39.4375 186.214844 38.855469 C 185.898438 38.273438 185.53125 37.691406 185.054688 37.164062 C 184.949219 37.003906 184.789062 36.847656 184.683594 36.742188 C 184.578125 36.636719 184.472656 36.53125 184.367188 36.425781 C 184.101562 36.160156 183.839844 35.894531 183.519531 35.683594 C 182.992188 35.261719 182.464844 34.945312 181.882812 34.574219 C 181.722656 34.46875 181.566406 34.414062 181.40625 34.363281 C 181.25 34.257812 181.089844 34.203125 180.878906 34.097656 C 180.5625 33.941406 180.246094 33.835938 179.925781 33.726562 C 179.609375 33.621094 179.292969 33.515625 178.976562 33.464844 C 178.816406 33.410156 178.710938 33.410156 178.554688 33.359375 C 178.339844 33.304688 178.183594 33.253906 177.972656 33.253906 C 177.8125 33.199219 177.601562 33.199219 177.441406 33.148438 C 177.285156 33.148438 177.125 33.09375 176.96875 33.09375 C 176.652344 33.042969 176.332031 33.042969 175.964844 33.042969 C 175.222656 33.042969 174.535156 33.09375 173.847656 33.253906 C 173.691406 33.304688 173.480469 33.304688 173.320312 33.359375 C 173.164062 33.410156 173.003906 33.464844 172.84375 33.464844 C 172.527344 33.570312 172.210938 33.675781 171.945312 33.78125 C 171.3125 34.046875 170.730469 34.308594 170.148438 34.625 C 169.570312 34.945312 168.988281 35.3125 168.457031 35.738281 C 167.984375 36.105469 167.453125 36.476562 166.980469 36.898438 C 165.972656 37.746094 165.023438 38.644531 164.175781 39.59375 C 163.332031 40.546875 162.488281 41.496094 161.746094 42.5 C 160.953125 43.558594 160.214844 44.617188 159.527344 45.726562 C 158.152344 47.890625 156.988281 50.113281 155.984375 52.4375 C 155.511719 53.601562 155.035156 54.761719 154.664062 55.925781 C 154.242188 57.140625 153.871094 58.304688 153.554688 59.574219 C 153.394531 60.207031 153.238281 60.894531 153.078125 61.527344 C 152.972656 62.109375 152.867188 62.742188 152.761719 63.324219 C 152.707031 63.960938 152.601562 64.644531 152.601562 65.28125 C 152.601562 65.386719 152.601562 65.4375 152.601562 65.542969 C 152.179688 65.542969 151.808594 65.542969 151.386719 65.542969 C 149.589844 65.542969 147.792969 65.542969 145.996094 65.542969 C 145.945312 65.332031 145.945312 65.121094 145.945312 64.964844 C 145.890625 64.433594 145.839844 63.90625 145.785156 63.378906 C 145.734375 62.425781 145.679688 61.476562 145.679688 60.472656 C 145.679688 59.519531 145.734375 58.515625 145.785156 57.5625 C 145.785156 57.300781 145.839844 57.035156 145.839844 56.71875 C 145.839844 56.773438 145.839844 56.878906 145.839844 56.929688 C 145.890625 56.03125 145.996094 55.132812 146.101562 54.234375 C 146.417969 53.707031 146.523438 53.175781 146.578125 52.648438 Z M 169.675781 77.59375 C 169.621094 80.027344 169.570312 82.457031 169.460938 84.886719 C 169.355469 87.425781 169.25 90.015625 169.144531 92.550781 C 169.039062 95.035156 168.933594 97.519531 168.882812 100.003906 C 168.828125 102.433594 168.777344 104.917969 168.722656 107.351562 C 168.722656 108.566406 168.671875 109.78125 168.671875 111.050781 C 168.671875 111.261719 168.671875 111.417969 168.671875 111.632812 C 163.914062 111.578125 159.105469 111.578125 154.347656 111.578125 C 148.320312 111.527344 142.296875 111.527344 136.273438 111.472656 C 132.308594 111.472656 128.34375 111.472656 124.378906 111.472656 C 124.378906 111.261719 124.328125 110.996094 124.328125 110.785156 C 124.273438 110.308594 124.273438 109.835938 124.222656 109.304688 C 124.222656 109.304688 124.222656 109.253906 124.222656 109.253906 C 124.222656 109.199219 124.222656 109.148438 124.222656 109.148438 C 124.222656 109.09375 124.222656 109.042969 124.222656 108.988281 C 124.117188 107.191406 124.011719 105.449219 123.90625 103.652344 C 123.800781 101.21875 123.695312 98.734375 123.640625 96.304688 C 123.585938 93.765625 123.535156 91.285156 123.535156 88.746094 C 123.535156 86.316406 123.585938 83.882812 123.640625 81.398438 C 123.695312 78.917969 123.695312 76.378906 123.800781 73.894531 C 123.851562 72.628906 123.851562 71.410156 123.90625 70.144531 C 123.90625 69.5625 123.957031 68.925781 124.011719 68.347656 C 124.855469 68.347656 125.648438 68.347656 126.496094 68.347656 C 132.308594 68.398438 138.121094 68.398438 143.9375 68.398438 C 149.960938 68.398438 155.933594 68.398438 161.957031 68.398438 C 164.601562 68.398438 167.242188 68.398438 169.886719 68.398438 C 169.886719 68.398438 169.886719 68.453125 169.886719 68.453125 C 169.886719 68.980469 169.886719 69.457031 169.886719 69.984375 C 169.675781 72.574219 169.726562 75.109375 169.675781 77.59375 Z M 118.410156 65.386719 C 118.144531 65.226562 117.828125 65.121094 117.5625 65.070312 C 117.351562 65.015625 117.140625 64.964844 116.929688 64.859375 C 116.242188 64.644531 115.5 64.433594 114.816406 64.171875 C 114.074219 63.90625 113.335938 63.589844 112.648438 63.273438 C 112.066406 63.007812 111.484375 62.742188 110.902344 62.425781 C 110.320312 62.109375 109.742188 61.792969 109.160156 61.476562 C 108.578125 61.105469 107.945312 60.734375 107.414062 60.3125 C 106.832031 59.890625 106.304688 59.46875 105.722656 59.042969 C 105.195312 58.621094 104.71875 58.199219 104.191406 57.777344 C 103.714844 57.351562 103.238281 56.878906 102.765625 56.453125 C 102.339844 56.03125 101.972656 55.609375 101.601562 55.1875 C 101.230469 54.761719 100.914062 54.339844 100.597656 53.917969 C 100.28125 53.496094 99.964844 53.019531 99.699219 52.597656 C 99.644531 52.492188 99.59375 52.386719 99.539062 52.277344 C 99.59375 52.332031 99.59375 52.386719 99.644531 52.4375 C 99.59375 52.386719 99.59375 52.277344 99.539062 52.226562 C 99.539062 52.171875 99.488281 52.171875 99.488281 52.121094 C 99.488281 52.121094 99.488281 52.121094 99.488281 52.171875 C 99.488281 52.171875 99.488281 52.121094 99.488281 52.121094 C 99.488281 52.121094 99.488281 52.066406 99.433594 52.066406 C 99.433594 52.066406 99.433594 52.066406 99.433594 52.121094 C 99.328125 51.910156 99.222656 51.644531 99.117188 51.433594 C 99.011719 51.222656 98.960938 51.011719 98.851562 50.800781 C 98.746094 50.535156 98.640625 50.21875 98.589844 49.953125 C 98.484375 49.691406 98.429688 49.425781 98.378906 49.109375 C 98.324219 48.84375 98.273438 48.578125 98.21875 48.261719 C 98.167969 48.050781 98.167969 47.785156 98.113281 47.574219 C 98.113281 47.257812 98.113281 46.941406 98.113281 46.625 C 98.113281 46.308594 98.167969 45.988281 98.21875 45.671875 C 98.273438 45.410156 98.324219 45.089844 98.378906 44.828125 C 98.484375 44.5625 98.589844 44.246094 98.695312 43.980469 C 98.800781 43.769531 98.851562 43.613281 98.960938 43.453125 C 99.066406 43.292969 99.171875 43.082031 99.277344 42.925781 C 99.382812 42.765625 99.488281 42.660156 99.539062 42.5 C 99.59375 42.394531 99.699219 42.34375 99.75 42.238281 C 99.859375 42.132812 99.964844 41.972656 100.121094 41.867188 C 100.226562 41.761719 100.332031 41.65625 100.386719 41.601562 C 100.492188 41.496094 100.648438 41.390625 100.808594 41.285156 C 100.914062 41.234375 101.019531 41.128906 101.125 41.074219 C 101.285156 40.96875 101.441406 40.863281 101.601562 40.757812 C 101.707031 40.703125 101.867188 40.597656 101.972656 40.546875 C 102.128906 40.441406 102.289062 40.386719 102.449219 40.335938 C 102.605469 40.28125 102.765625 40.230469 102.921875 40.125 C 103.082031 40.070312 103.238281 40.019531 103.398438 39.964844 C 103.609375 39.910156 103.769531 39.859375 103.980469 39.804688 C 104.136719 39.753906 104.351562 39.699219 104.507812 39.699219 C 104.71875 39.648438 104.929688 39.648438 105.144531 39.59375 C 105.460938 39.542969 105.777344 39.542969 106.148438 39.542969 C 106.464844 39.542969 106.78125 39.542969 107.046875 39.542969 C 107.308594 39.542969 107.574219 39.59375 107.839844 39.59375 C 108.101562 39.648438 108.367188 39.648438 108.578125 39.699219 C 109 39.753906 109.371094 39.859375 109.792969 39.964844 C 110.214844 40.070312 110.585938 40.175781 111.007812 40.28125 C 111.589844 40.441406 112.171875 40.652344 112.753906 40.863281 C 113.335938 41.074219 113.863281 41.339844 114.445312 41.550781 C 115.078125 41.867188 115.660156 42.132812 116.292969 42.449219 C 116.875 42.765625 117.402344 43.082031 117.984375 43.453125 C 118.777344 43.929688 119.519531 44.457031 120.257812 44.984375 C 120.945312 45.460938 121.578125 45.988281 122.265625 46.519531 C 124.167969 48.105469 125.964844 49.742188 127.761719 51.539062 C 129.558594 53.335938 131.304688 55.132812 133.046875 56.929688 C 134.738281 58.675781 136.429688 60.417969 138.121094 62.164062 C 138.96875 63.007812 139.8125 63.855469 140.605469 64.699219 C 140.921875 65.015625 141.292969 65.386719 141.609375 65.703125 C 139.125 65.703125 136.640625 65.703125 134.105469 65.703125 C 128.820312 65.492188 123.585938 65.4375 118.410156 65.386719 Z M 175.171875 58.726562 C 175.117188 58.78125 175.066406 58.78125 175.011719 58.832031 C 175.011719 58.832031 174.960938 58.832031 174.960938 58.886719 C 174.007812 59.519531 173.054688 60.101562 172.15625 60.734375 C 171.894531 60.894531 171.628906 61.105469 171.367188 61.265625 C 170.414062 61.949219 169.410156 62.636719 168.457031 63.378906 C 167.984375 63.746094 167.507812 64.117188 167.085938 64.488281 C 166.820312 64.699219 166.554688 64.910156 166.34375 65.121094 C 166.238281 65.226562 166.082031 65.332031 165.972656 65.492188 C 163.964844 65.492188 161.957031 65.492188 159.949219 65.492188 C 158.574219 65.492188 157.203125 65.492188 155.773438 65.492188 C 155.773438 65.28125 155.773438 65.070312 155.773438 64.910156 C 155.828125 64.433594 155.878906 63.960938 155.933594 63.484375 C 155.984375 63.007812 156.089844 62.53125 156.195312 62.058594 C 156.410156 61.160156 156.621094 60.261719 156.882812 59.359375 C 157.09375 58.570312 157.359375 57.777344 157.625 56.984375 C 157.941406 56.03125 158.3125 55.132812 158.679688 54.183594 C 159.050781 53.285156 159.472656 52.386719 159.898438 51.488281 C 160.371094 50.589844 160.796875 49.691406 161.324219 48.84375 C 161.851562 47.945312 162.433594 47.046875 162.960938 46.148438 C 163.4375 45.460938 163.964844 44.773438 164.441406 44.085938 C 164.917969 43.453125 165.445312 42.820312 166.027344 42.183594 C 166.398438 41.761719 166.820312 41.285156 167.242188 40.863281 C 167.664062 40.386719 168.140625 39.964844 168.617188 39.542969 C 168.988281 39.226562 169.355469 38.90625 169.78125 38.589844 C 170.148438 38.273438 170.574219 38.007812 170.996094 37.691406 C 171.257812 37.535156 171.472656 37.375 171.734375 37.269531 C 171.945312 37.164062 172.15625 37.003906 172.371094 36.898438 C 172.527344 36.847656 172.6875 36.742188 172.84375 36.6875 C 173.003906 36.636719 173.164062 36.582031 173.320312 36.476562 C 173.53125 36.425781 173.796875 36.316406 174.007812 36.265625 C 174.21875 36.210938 174.429688 36.160156 174.695312 36.105469 C 174.90625 36.054688 175.066406 36.054688 175.277344 36 C 175.433594 36 175.539062 36 175.699219 35.949219 C 175.859375 35.949219 176.070312 35.949219 176.226562 35.949219 C 176.386719 35.949219 176.542969 35.949219 176.703125 35.949219 C 176.863281 35.949219 177.019531 35.949219 177.179688 36 C 177.335938 36.054688 177.550781 36.054688 177.707031 36.105469 C 177.972656 36.160156 178.183594 36.210938 178.394531 36.265625 C 178.660156 36.316406 178.871094 36.425781 179.132812 36.476562 C 179.292969 36.53125 179.453125 36.582031 179.609375 36.636719 C 179.769531 36.6875 179.925781 36.792969 180.085938 36.847656 C 180.296875 36.953125 180.507812 37.058594 180.71875 37.164062 C 180.929688 37.269531 181.089844 37.375 181.300781 37.535156 C 181.40625 37.640625 181.566406 37.691406 181.671875 37.796875 C 181.777344 37.902344 181.9375 38.007812 182.042969 38.113281 C 182.148438 38.222656 182.253906 38.328125 182.359375 38.433594 C 182.464844 38.539062 182.570312 38.644531 182.675781 38.800781 C 182.78125 38.90625 182.886719 39.011719 182.941406 39.121094 C 183.046875 39.277344 183.152344 39.382812 183.257812 39.542969 C 183.363281 39.648438 183.414062 39.804688 183.46875 39.910156 C 183.574219 40.070312 183.625 40.230469 183.734375 40.386719 C 183.839844 40.597656 183.945312 40.808594 184.050781 41.074219 C 184.15625 41.285156 184.261719 41.550781 184.3125 41.816406 C 184.367188 41.972656 184.417969 42.183594 184.472656 42.34375 C 184.523438 42.554688 184.578125 42.714844 184.632812 42.925781 C 184.683594 43.136719 184.738281 43.398438 184.738281 43.613281 C 184.789062 43.875 184.789062 44.140625 184.84375 44.40625 C 184.84375 44.667969 184.84375 44.878906 184.84375 45.144531 C 184.84375 45.410156 184.84375 45.671875 184.84375 45.9375 C 184.84375 46.148438 184.789062 46.414062 184.789062 46.625 C 184.738281 46.886719 184.738281 47.152344 184.683594 47.363281 C 184.632812 47.679688 184.578125 47.945312 184.472656 48.261719 C 184.367188 48.527344 184.3125 48.84375 184.207031 49.109375 C 184.101562 49.371094 183.996094 49.636719 183.890625 49.847656 C 183.785156 50.058594 183.734375 50.21875 183.625 50.429688 C 183.519531 50.695312 183.363281 50.90625 183.203125 51.117188 C 183.097656 51.328125 182.941406 51.488281 182.835938 51.699219 C 182.621094 52.015625 182.410156 52.277344 182.199219 52.597656 C 181.988281 52.859375 181.777344 53.125 181.566406 53.335938 C 181.25 53.652344 180.929688 53.96875 180.613281 54.289062 C 180.296875 54.605469 179.925781 54.921875 179.609375 55.238281 C 178.234375 56.558594 176.703125 57.722656 175.171875 58.726562 C 175.171875 58.78125 175.171875 58.78125 175.171875 58.726562 Z M 78.503906 61 C 77.976562 60.578125 77.5 60.152344 76.972656 59.730469 C 76.390625 59.253906 75.863281 58.78125 75.335938 58.25 C 74.332031 57.351562 73.378906 56.402344 72.480469 55.449219 C 72.003906 54.976562 71.582031 54.5 71.105469 53.96875 C 70.628906 53.441406 70.207031 52.964844 69.785156 52.4375 C 69.308594 51.855469 68.886719 51.328125 68.410156 50.746094 C 67.988281 50.21875 67.617188 49.691406 67.195312 49.160156 C 66.136719 47.679688 65.082031 46.203125 64.078125 44.667969 C 63.546875 43.824219 63.019531 42.976562 62.492188 42.078125 C 62.015625 41.285156 61.539062 40.492188 61.117188 39.699219 C 60.535156 38.644531 60.007812 37.640625 59.53125 36.582031 C 59.269531 36.054688 59.003906 35.472656 58.792969 34.890625 C 58.582031 34.308594 58.316406 33.726562 58.105469 33.148438 C 57.945312 32.722656 57.789062 32.355469 57.683594 31.929688 C 57.523438 31.457031 57.363281 30.980469 57.207031 30.453125 C 56.941406 29.605469 56.730469 28.707031 56.464844 27.863281 C 56.359375 27.492188 56.308594 27.121094 56.253906 26.753906 C 56.148438 26.328125 56.097656 25.90625 56.042969 25.484375 C 55.886719 24.742188 55.832031 23.949219 55.726562 23.210938 C 55.675781 22.628906 55.621094 21.996094 55.621094 21.414062 C 55.621094 20.832031 55.621094 20.25 55.621094 19.722656 C 55.621094 19.195312 55.675781 18.71875 55.726562 18.191406 C 55.78125 17.714844 55.832031 17.1875 55.9375 16.710938 C 55.992188 16.339844 56.097656 15.917969 56.148438 15.546875 C 56.253906 15.175781 56.308594 14.859375 56.414062 14.492188 C 56.519531 14.171875 56.625 13.855469 56.730469 13.59375 C 56.835938 13.328125 56.941406 13.0625 57.046875 12.851562 C 57.152344 12.589844 57.3125 12.324219 57.417969 12.058594 C 57.523438 11.796875 57.683594 11.53125 57.839844 11.320312 C 58.050781 11.003906 58.210938 10.683594 58.421875 10.367188 C 58.632812 10.050781 58.84375 9.734375 59.109375 9.417969 C 59.269531 9.207031 59.425781 8.992188 59.636719 8.835938 C 59.796875 8.625 60.007812 8.414062 60.21875 8.253906 C 60.429688 8.042969 60.640625 7.882812 60.851562 7.671875 C 61.066406 7.515625 61.277344 7.304688 61.488281 7.144531 C 61.75 6.984375 61.964844 6.773438 62.226562 6.617188 C 62.492188 6.457031 62.757812 6.296875 63.019531 6.140625 C 63.335938 5.980469 63.65625 5.824219 63.972656 5.664062 C 64.289062 5.503906 64.554688 5.398438 64.871094 5.292969 C 65.238281 5.136719 65.664062 5.03125 66.03125 4.925781 C 66.402344 4.820312 66.773438 4.714844 67.144531 4.605469 C 67.566406 4.5 68.042969 4.394531 68.464844 4.34375 C 68.886719 4.289062 69.308594 4.183594 69.785156 4.132812 C 70.15625 4.078125 70.523438 4.078125 70.894531 4.027344 C 71.371094 3.972656 71.898438 3.972656 72.375 3.972656 C 73.167969 3.972656 73.960938 3.972656 74.753906 3.972656 C 75.230469 4.027344 75.703125 4.027344 76.179688 4.078125 C 76.707031 4.132812 77.289062 4.183594 77.820312 4.238281 C 78.769531 4.34375 79.722656 4.5 80.671875 4.660156 C 81.519531 4.820312 82.363281 4.976562 83.15625 5.136719 C 83.898438 5.292969 84.636719 5.453125 85.429688 5.664062 C 87.015625 6.035156 88.546875 6.457031 90.132812 6.933594 C 91.824219 7.460938 93.515625 7.988281 95.152344 8.570312 C 96.050781 8.886719 96.898438 9.207031 97.742188 9.574219 C 98.589844 9.945312 99.433594 10.261719 100.28125 10.632812 C 100.332031 10.632812 100.332031 10.683594 100.386719 10.683594 C 102.183594 11.53125 103.980469 12.375 105.722656 13.273438 C 106.621094 13.75 107.519531 14.226562 108.367188 14.703125 C 108.789062 14.964844 109.265625 15.230469 109.6875 15.441406 C 110.109375 15.707031 110.480469 15.917969 110.902344 16.183594 C 112.59375 17.238281 114.285156 18.347656 115.925781 19.511719 C 116.71875 20.09375 117.511719 20.621094 118.300781 21.253906 C 119.042969 21.835938 119.78125 22.417969 120.523438 23 C 121.210938 23.582031 121.949219 24.164062 122.636719 24.742188 C 123.324219 25.324219 124.011719 25.960938 124.699219 26.539062 C 126.019531 27.703125 127.289062 28.972656 128.503906 30.242188 C 129.824219 31.613281 131.09375 32.988281 132.308594 34.46875 C 133.523438 35.949219 134.6875 37.429688 135.847656 38.960938 C 136.167969 39.382812 136.429688 39.804688 136.746094 40.230469 C 137.859375 41.816406 138.914062 43.398438 139.972656 45.039062 C 140.921875 46.464844 141.820312 47.945312 142.613281 49.425781 C 142.773438 49.742188 142.929688 50.007812 143.089844 50.324219 C 143.144531 50.480469 143.25 50.589844 143.300781 50.746094 C 143.40625 50.957031 143.511719 51.167969 143.671875 51.378906 C 143.671875 51.378906 143.722656 51.433594 143.722656 51.433594 C 143.722656 51.488281 143.722656 51.539062 143.671875 51.59375 C 143.355469 53.285156 143.144531 55.027344 143.035156 56.773438 C 142.929688 58.570312 142.878906 60.3125 142.929688 62.109375 C 142.929688 62.320312 142.984375 62.585938 142.984375 62.796875 C 142.351562 62.164062 141.714844 61.527344 141.082031 60.894531 C 139.390625 59.203125 137.75 57.457031 136.0625 55.714844 C 134.316406 53.917969 132.574219 52.121094 130.828125 50.375 C 129.085938 48.632812 127.339844 46.886719 125.492188 45.304688 C 123.535156 43.613281 121.472656 41.972656 119.253906 40.652344 C 118.671875 40.28125 118.089844 39.964844 117.511719 39.648438 C 116.980469 39.332031 116.398438 39.066406 115.871094 38.800781 C 114.761719 38.273438 113.546875 37.796875 112.382812 37.429688 C 111.75 37.214844 111.113281 37.058594 110.480469 36.898438 C 109.792969 36.742188 109.160156 36.636719 108.472656 36.53125 C 108.15625 36.476562 107.839844 36.476562 107.519531 36.425781 C 107.152344 36.371094 106.78125 36.371094 106.410156 36.371094 C 106.09375 36.371094 105.828125 36.371094 105.511719 36.371094 C 105.355469 36.371094 105.195312 36.425781 105.035156 36.425781 C 104.878906 36.425781 104.71875 36.425781 104.5625 36.476562 C 104.246094 36.53125 103.875 36.582031 103.558594 36.636719 C 103.1875 36.6875 102.816406 36.792969 102.5 36.898438 C 102.183594 37.003906 101.867188 37.109375 101.546875 37.269531 C 101.230469 37.375 100.96875 37.535156 100.648438 37.691406 C 100.332031 37.851562 100.015625 38.007812 99.75 38.222656 C 99.59375 38.328125 99.433594 38.433594 99.277344 38.589844 C 99.171875 38.695312 99.011719 38.75 98.90625 38.855469 C 98.429688 39.226562 98.007812 39.648438 97.636719 40.125 C 97.585938 40.175781 97.585938 40.175781 97.585938 40.230469 C 97.585938 40.230469 97.585938 40.230469 97.585938 40.28125 C 97.585938 40.28125 97.585938 40.28125 97.53125 40.335938 C 97.53125 40.335938 97.53125 40.335938 97.53125 40.28125 C 97.53125 40.28125 97.53125 40.28125 97.53125 40.335938 C 97.53125 40.386719 97.480469 40.386719 97.480469 40.441406 C 97.425781 40.492188 97.425781 40.492188 97.375 40.546875 C 97.320312 40.597656 97.320312 40.652344 97.269531 40.652344 C 97.269531 40.652344 97.214844 40.703125 97.214844 40.703125 C 97.214844 40.703125 97.214844 40.757812 97.164062 40.757812 C 97.109375 40.808594 97.109375 40.863281 97.054688 40.863281 C 96.84375 41.179688 96.632812 41.445312 96.476562 41.761719 C 96.316406 42.078125 96.15625 42.34375 96.050781 42.660156 C 95.894531 42.976562 95.789062 43.292969 95.683594 43.664062 C 95.578125 43.980469 95.472656 44.296875 95.417969 44.667969 C 95.363281 45.039062 95.3125 45.410156 95.257812 45.777344 C 95.207031 46.148438 95.207031 46.464844 95.207031 46.835938 C 95.207031 47.523438 95.257812 48.210938 95.363281 48.84375 C 95.472656 49.476562 95.628906 50.113281 95.839844 50.746094 C 95.945312 51.0625 96.050781 51.378906 96.15625 51.699219 C 96.261719 52.015625 96.371094 52.332031 96.527344 52.597656 C 96.792969 53.175781 97.109375 53.757812 97.425781 54.339844 C 97.585938 54.605469 97.742188 54.867188 97.953125 55.132812 C 98.167969 55.449219 98.378906 55.714844 98.589844 56.03125 C 99.382812 57.089844 100.226562 58.039062 101.179688 58.9375 C 102.078125 59.835938 103.082031 60.683594 104.085938 61.476562 C 104.613281 61.898438 105.195312 62.320312 105.722656 62.691406 C 106.199219 63.0625 106.726562 63.378906 107.203125 63.695312 C 107.730469 64.011719 108.261719 64.382812 108.84375 64.644531 C 109.316406 64.910156 109.847656 65.175781 110.320312 65.4375 C 109.476562 65.4375 108.683594 65.4375 107.839844 65.4375 C 104.984375 65.4375 102.183594 65.492188 99.328125 65.597656 C 96.316406 65.652344 93.355469 65.808594 90.34375 65.914062 C 88.96875 65.96875 87.597656 66.019531 86.222656 66.074219 C 86.167969 65.914062 86.0625 65.808594 85.957031 65.652344 C 85.800781 65.492188 85.535156 65.386719 85.324219 65.28125 C 85.164062 65.226562 85.058594 65.175781 84.902344 65.121094 C 84.109375 64.753906 83.316406 64.328125 82.523438 63.855469 C 81.835938 63.429688 81.148438 63.007812 80.515625 62.53125 C 79.773438 62.003906 79.140625 61.476562 78.503906 61 Z M 11.382812 122.308594 C 10.960938 122.359375 10.589844 122.414062 10.167969 122.464844 C 9.90625 122.464844 9.640625 122.519531 9.429688 122.519531 C 9.21875 122.519531 9.007812 122.519531 8.742188 122.519531 C 8.425781 122.464844 8.109375 122.464844 7.84375 122.414062 C 7.578125 122.359375 7.316406 122.308594 7.105469 122.203125 C 6.945312 122.148438 6.839844 122.097656 6.679688 122.042969 C 6.46875 121.9375 6.3125 121.832031 6.097656 121.726562 C 5.941406 121.621094 5.730469 121.460938 5.570312 121.355469 C 5.464844 121.25 5.414062 121.199219 5.308594 121.089844 C 5.253906 120.984375 5.148438 120.933594 5.09375 120.828125 C 4.988281 120.667969 4.882812 120.511719 4.832031 120.351562 C 4.726562 120.085938 4.566406 119.824219 4.460938 119.507812 C 4.300781 119.082031 4.195312 118.660156 4.144531 118.238281 C 3.933594 117.074219 3.773438 115.914062 3.722656 114.695312 C 3.457031 110.574219 3.507812 106.453125 3.773438 102.328125 C 3.878906 100.957031 3.984375 99.582031 4.144531 98.207031 C 4.300781 96.832031 4.515625 95.457031 4.777344 94.136719 C 4.988281 93.1875 5.199219 92.234375 5.414062 91.335938 C 5.625 90.386719 5.941406 89.488281 6.257812 88.589844 C 6.523438 87.847656 6.785156 87.109375 7.105469 86.421875 C 7.367188 85.785156 7.683594 85.207031 7.949219 84.570312 C 8.320312 83.832031 8.6875 83.144531 9.164062 82.457031 C 9.585938 81.875 10.011719 81.292969 10.484375 80.765625 C 10.804688 80.449219 11.066406 80.132812 11.382812 79.867188 C 11.492188 79.761719 11.597656 79.710938 11.703125 79.601562 C 11.808594 79.550781 11.859375 79.496094 11.964844 79.445312 C 12.019531 79.390625 12.070312 79.339844 12.125 79.285156 C 12.335938 79.179688 12.546875 79.023438 12.707031 78.917969 C 12.8125 78.863281 12.917969 78.8125 13.023438 78.8125 C 13.289062 78.703125 13.550781 78.597656 13.761719 78.386719 C 14.027344 78.125 14.1875 77.753906 14.1875 77.382812 C 14.238281 77.382812 14.292969 77.332031 14.34375 77.332031 C 14.714844 77.121094 15.136719 76.960938 15.558594 76.855469 C 16.667969 76.484375 17.78125 76.222656 18.941406 75.957031 C 20.738281 75.585938 22.535156 75.324219 24.332031 75.003906 C 26.234375 74.742188 28.191406 74.476562 30.09375 74.265625 C 32.101562 74.054688 34.164062 73.84375 36.171875 73.683594 C 38.179688 73.472656 40.136719 73.3125 42.144531 73.101562 C 45.105469 72.839844 48.117188 72.519531 51.074219 72.203125 C 53.664062 71.941406 56.253906 71.621094 58.84375 71.359375 C 61.644531 71.042969 64.5 70.722656 67.300781 70.511719 C 70.101562 70.25 72.902344 70.039062 75.757812 69.878906 C 81.253906 69.507812 86.75 69.246094 92.300781 69.03125 C 97.636719 68.820312 103.027344 68.664062 108.367188 68.664062 C 112.488281 68.664062 116.664062 68.664062 120.785156 68.714844 C 120.785156 68.769531 120.785156 68.769531 120.785156 68.820312 C 120.628906 71.304688 120.574219 73.789062 120.523438 76.328125 C 120.46875 78.8125 120.417969 81.292969 120.417969 83.777344 C 120.363281 86.261719 120.363281 88.695312 120.363281 91.179688 C 120.363281 93.660156 120.417969 96.144531 120.523438 98.628906 C 120.628906 101.0625 120.734375 103.546875 120.839844 105.976562 C 120.890625 107.191406 121 108.40625 121.050781 109.621094 C 121.050781 109.675781 121.050781 109.730469 121.050781 109.78125 C 121.050781 109.835938 121.050781 109.886719 121.050781 109.941406 C 121.050781 109.886719 121.050781 109.886719 121.050781 109.835938 C 121.050781 109.835938 121.050781 109.886719 121.050781 109.886719 C 121.050781 109.886719 121.050781 109.941406 121.050781 109.941406 C 121.105469 110.519531 121.15625 111.050781 121.15625 111.632812 C 121.15625 111.738281 121.15625 111.789062 121.15625 111.894531 C 120.152344 111.894531 119.09375 111.949219 118.089844 111.949219 C 115.132812 112 112.226562 112.105469 109.265625 112.210938 C 106.359375 112.316406 103.453125 112.425781 100.542969 112.582031 C 94.464844 112.898438 88.390625 113.214844 82.3125 113.535156 C 76.234375 113.851562 70.207031 114.167969 64.128906 114.589844 C 58.210938 114.960938 52.34375 115.488281 46.476562 116.125 C 43.570312 116.441406 40.664062 116.757812 37.757812 117.179688 C 36.332031 117.390625 34.902344 117.601562 33.527344 117.816406 C 31.996094 118.078125 30.464844 118.34375 28.878906 118.609375 C 26.078125 119.136719 23.222656 119.769531 20.476562 120.457031 C 19.101562 120.773438 17.726562 121.144531 16.300781 121.515625 C 14.976562 121.832031 13.65625 122.203125 12.335938 122.464844 C 12.125 122.148438 11.753906 122.253906 11.382812 122.308594 Z M 98.429688 261.835938 C 93.039062 261.675781 87.648438 261.515625 82.257812 261.304688 C 77.078125 261.09375 71.898438 260.882812 66.667969 260.566406 C 65.027344 260.460938 63.390625 260.355469 61.75 260.195312 C 59.953125 260.039062 58.210938 259.878906 56.464844 259.667969 C 53.136719 259.296875 49.859375 258.820312 46.636719 258.1875 C 45.632812 257.976562 44.628906 257.765625 43.675781 257.5 C 43.148438 257.34375 42.621094 257.238281 42.144531 257.078125 C 41.667969 256.917969 41.140625 256.761719 40.664062 256.601562 C 40.242188 256.445312 39.820312 256.285156 39.394531 256.125 C 38.972656 255.96875 38.550781 255.757812 38.128906 255.597656 C 37.914062 255.492188 37.652344 255.386719 37.441406 255.226562 C 37.175781 255.070312 36.964844 254.964844 36.699219 254.804688 C 36.542969 254.699219 36.382812 254.59375 36.171875 254.433594 C 36.011719 254.277344 35.800781 254.171875 35.644531 254.011719 C 35.484375 253.855469 35.324219 253.695312 35.167969 253.535156 C 35.0625 253.429688 34.957031 253.324219 34.851562 253.21875 C 34.640625 252.957031 34.375 252.636719 34.164062 252.375 C 33.898438 252.003906 33.6875 251.582031 33.476562 251.210938 C 33.316406 250.945312 33.210938 250.628906 33.105469 250.367188 C 33 250.15625 32.949219 249.941406 32.84375 249.730469 C 32.578125 248.9375 32.367188 248.144531 32.207031 247.300781 C 31.996094 246.242188 31.839844 245.132812 31.625 244.078125 C 31.46875 242.914062 31.257812 241.75 31.097656 240.589844 C 30.78125 238.15625 30.464844 235.726562 30.148438 233.292969 C 29.828125 230.757812 29.511719 228.222656 29.195312 225.632812 C 28.878906 223.09375 28.5625 220.609375 28.242188 218.074219 C 27.925781 215.429688 27.609375 212.789062 27.292969 210.09375 C 26.660156 205.019531 26.023438 199.945312 25.441406 194.820312 C 24.808594 189.535156 24.28125 184.300781 23.75 179.015625 C 23.222656 173.835938 22.695312 168.605469 22.21875 163.425781 C 21.742188 158.300781 21.214844 153.121094 20.632812 147.992188 C 20.050781 142.8125 19.417969 137.632812 18.730469 132.507812 C 18.574219 131.34375 18.414062 130.183594 18.253906 129.019531 C 18.097656 127.960938 17.9375 126.90625 17.78125 125.847656 C 17.675781 125.214844 17.566406 124.632812 17.410156 124 C 17.410156 124 17.410156 123.945312 17.410156 123.945312 C 17.832031 123.839844 18.253906 123.734375 18.679688 123.628906 C 20.105469 123.257812 21.53125 122.886719 22.957031 122.570312 C 24.332031 122.253906 25.707031 121.9375 27.082031 121.671875 C 27.769531 121.515625 28.457031 121.410156 29.140625 121.25 C 31.945312 120.722656 34.796875 120.246094 37.597656 119.824219 C 40.503906 119.398438 43.414062 119.03125 46.371094 118.714844 C 49.382812 118.394531 52.398438 118.078125 55.410156 117.816406 C 58.371094 117.550781 61.328125 117.339844 64.339844 117.128906 C 70.15625 116.757812 75.96875 116.441406 81.78125 116.125 C 87.914062 115.804688 94.042969 115.4375 100.175781 115.121094 C 103.027344 114.960938 105.933594 114.855469 108.789062 114.75 C 111.800781 114.644531 114.816406 114.539062 117.878906 114.484375 C 119.625 114.433594 121.367188 114.433594 123.113281 114.433594 C 123.113281 115.066406 123.113281 115.648438 123.164062 116.28125 C 123.21875 117.761719 123.21875 119.242188 123.269531 120.667969 C 123.324219 123.785156 123.375 126.90625 123.375 130.023438 C 123.429688 136.578125 123.429688 143.078125 123.429688 149.632812 C 123.429688 156.132812 123.429688 162.578125 123.429688 169.082031 C 123.429688 172.355469 123.480469 175.632812 123.535156 178.910156 C 123.585938 182.136719 123.695312 185.304688 123.746094 188.53125 C 123.90625 195.082031 124.0625 201.585938 124.222656 208.136719 C 124.433594 214.636719 124.644531 221.191406 124.75 227.691406 C 124.910156 234.035156 124.960938 240.324219 125.015625 246.667969 C 125.066406 249.625 125.066406 252.636719 125.121094 255.597656 C 125.121094 256.972656 125.171875 258.347656 125.226562 259.71875 C 125.226562 260.355469 125.277344 260.988281 125.277344 261.625 C 125.277344 261.835938 125.277344 262.046875 125.332031 262.257812 C 121.738281 262.203125 118.089844 262.203125 114.496094 262.152344 C 109.105469 262.097656 103.769531 261.992188 98.429688 261.835938 Z M 146.367188 262.308594 C 143.722656 262.363281 141.132812 262.363281 138.492188 262.363281 C 135.796875 262.363281 133.101562 262.363281 130.40625 262.363281 C 129.664062 262.363281 128.925781 262.363281 128.1875 262.363281 C 128.082031 259.878906 128.027344 257.34375 127.972656 254.859375 C 127.921875 251.84375 127.867188 248.78125 127.867188 245.769531 C 127.816406 239.371094 127.710938 233.03125 127.605469 226.636719 C 127.445312 220.1875 127.234375 213.738281 127.074219 207.292969 C 126.917969 200.738281 126.757812 194.183594 126.601562 187.632812 C 126.496094 184.300781 126.441406 180.972656 126.390625 177.695312 C 126.335938 174.417969 126.335938 171.195312 126.335938 167.917969 C 126.335938 161.46875 126.335938 154.96875 126.335938 148.519531 C 126.335938 142.074219 126.335938 135.625 126.285156 129.230469 C 126.285156 126.113281 126.230469 122.996094 126.175781 119.875 C 126.125 118.394531 126.125 116.96875 126.070312 115.488281 C 126.070312 115.171875 126.070312 114.855469 126.070312 114.539062 C 135.375 114.484375 144.675781 114.589844 154.03125 114.644531 C 158.839844 114.644531 163.648438 114.695312 168.457031 114.695312 C 168.457031 115.171875 168.511719 115.59375 168.511719 116.070312 C 168.5625 117.550781 168.617188 119.03125 168.671875 120.5625 C 168.777344 123.417969 168.777344 126.324219 168.828125 129.179688 C 168.882812 135.785156 169.039062 142.335938 169.199219 148.945312 C 169.25 152.0625 169.355469 155.179688 169.460938 158.300781 C 169.570312 161.679688 169.675781 165.0625 169.78125 168.394531 C 169.992188 174.945312 170.308594 181.5 170.679688 188.054688 C 170.996094 194.503906 171.367188 200.949219 171.683594 207.449219 C 172 213.953125 172.371094 220.398438 172.632812 226.898438 C 172.898438 233.242188 173.054688 239.585938 173.269531 245.875 C 173.375 248.886719 173.425781 251.84375 173.585938 254.859375 C 173.636719 256.285156 173.691406 257.710938 173.742188 259.191406 C 173.796875 259.828125 173.796875 260.511719 173.847656 261.148438 C 173.847656 261.253906 173.847656 261.359375 173.847656 261.464844 C 170.042969 261.625 166.238281 261.835938 162.378906 261.941406 C 156.988281 262.097656 151.703125 262.203125 146.367188 262.308594 Z M 264.066406 245.449219 C 264.015625 246.347656 263.90625 247.300781 263.800781 248.199219 C 263.695312 248.992188 263.589844 249.730469 263.433594 250.472656 C 263.328125 251.054688 263.167969 251.582031 263.007812 252.164062 C 262.957031 252.375 262.851562 252.53125 262.796875 252.746094 C 262.746094 252.902344 262.640625 253.007812 262.585938 253.167969 C 262.535156 253.21875 262.480469 253.273438 262.429688 253.378906 C 262.375 253.429688 262.324219 253.484375 262.269531 253.535156 C 262.164062 253.644531 262.058594 253.695312 261.953125 253.75 C 261.792969 253.855469 261.582031 253.960938 261.425781 254.066406 C 260.84375 254.328125 260.207031 254.59375 259.574219 254.804688 C 258.359375 255.226562 257.144531 255.546875 255.875 255.808594 C 253.601562 256.230469 251.277344 256.550781 249.003906 256.8125 C 246.625 257.078125 244.195312 257.289062 241.761719 257.5 C 240.496094 257.605469 239.226562 257.710938 238.011719 257.765625 C 237.324219 257.816406 236.636719 257.871094 235.949219 257.921875 C 235.683594 257.921875 235.367188 257.976562 235.105469 257.976562 C 235 257.976562 234.894531 257.976562 234.785156 257.976562 C 234.679688 257.976562 234.574219 257.976562 234.523438 257.976562 C 234.46875 257.976562 234.417969 257.976562 234.363281 257.976562 C 234.3125 257.976562 234.257812 257.976562 234.207031 257.976562 C 234.101562 257.976562 233.996094 257.976562 233.886719 257.976562 C 233.835938 257.976562 233.78125 257.976562 233.730469 257.976562 C 233.730469 257.976562 233.730469 257.976562 233.675781 257.976562 C 231.351562 258.136719 228.972656 258.292969 226.648438 258.398438 C 221.363281 258.714844 216.128906 258.980469 210.84375 259.246094 C 205.613281 259.507812 200.328125 259.828125 195.09375 260.089844 C 189.597656 260.40625 184.050781 260.726562 178.554688 261.042969 C 177.972656 261.09375 177.390625 261.09375 176.808594 261.148438 C 176.808594 261.09375 176.808594 261.09375 176.808594 261.042969 C 176.757812 260.40625 176.757812 259.828125 176.703125 259.191406 C 176.652344 257.871094 176.597656 256.550781 176.542969 255.28125 C 176.4375 252.53125 176.332031 249.785156 176.28125 247.035156 C 176.070312 240.746094 175.910156 234.511719 175.699219 228.222656 C 175.433594 221.667969 175.117188 215.113281 174.746094 208.558594 C 174.429688 202.113281 174.0625 195.664062 173.742188 189.21875 C 173.425781 182.609375 173.109375 176.058594 172.84375 169.449219 C 172.738281 166.28125 172.632812 163.054688 172.527344 159.882812 C 172.421875 156.660156 172.316406 153.4375 172.265625 150.210938 C 172.105469 143.660156 171.945312 137.105469 171.839844 130.550781 C 171.789062 127.382812 171.789062 124.210938 171.683594 121.039062 C 171.628906 119.453125 171.578125 117.921875 171.523438 116.335938 C 171.523438 115.964844 171.472656 115.59375 171.472656 115.226562 C 171.578125 115.011719 171.628906 114.855469 171.628906 114.589844 C 171.839844 114.589844 172 114.589844 172.210938 114.589844 C 178.078125 114.644531 183.945312 114.75 189.863281 114.800781 C 195.886719 114.855469 201.914062 114.90625 207.9375 114.90625 C 213.804688 114.90625 219.617188 114.90625 225.484375 114.855469 C 231.40625 114.855469 237.324219 114.855469 243.242188 114.75 C 246.203125 114.695312 249.109375 114.644531 252.070312 114.589844 C 254.921875 114.539062 257.722656 114.484375 260.578125 114.378906 C 261.847656 114.328125 263.0625 114.273438 264.332031 114.167969 C 264.332031 114.378906 264.332031 114.644531 264.332031 114.855469 C 264.332031 115.121094 264.332031 115.382812 264.332031 115.648438 C 264.332031 116.230469 264.332031 116.8125 264.332031 117.390625 C 264.332031 119.082031 264.332031 120.773438 264.332031 122.464844 C 264.226562 132.296875 264.015625 142.074219 263.855469 151.902344 C 263.75 157.082031 263.75 162.261719 263.695312 167.441406 C 263.644531 172.726562 263.644531 177.960938 263.644531 183.246094 C 263.644531 188.425781 263.644531 193.65625 263.695312 198.835938 C 263.75 204.121094 263.800781 209.457031 263.960938 214.742188 C 264.066406 220.027344 264.226562 225.3125 264.382812 230.597656 C 264.4375 233.136719 264.488281 235.671875 264.488281 238.210938 C 264.277344 240.695312 264.226562 243.074219 264.066406 245.449219 Z M 280.820312 102.382812 C 280.765625 102.804688 280.765625 103.175781 280.714844 103.597656 C 280.660156 103.96875 280.609375 104.390625 280.554688 104.761719 C 280.449219 105.234375 280.34375 105.660156 280.1875 106.132812 C 280.027344 106.503906 279.867188 106.925781 279.710938 107.296875 C 279.550781 107.5625 279.445312 107.824219 279.289062 108.039062 C 279.183594 108.195312 279.078125 108.355469 278.96875 108.460938 C 278.8125 108.617188 278.652344 108.777344 278.496094 108.9375 C 278.390625 109.042969 278.230469 109.148438 278.125 109.199219 C 277.964844 109.304688 277.859375 109.359375 277.703125 109.464844 C 277.492188 109.570312 277.28125 109.675781 277.066406 109.730469 C 276.75 109.835938 276.433594 109.941406 276.0625 109.992188 C 275.113281 110.152344 274.160156 110.308594 273.210938 110.414062 C 272.257812 110.519531 271.359375 110.628906 270.410156 110.734375 C 268.558594 110.945312 266.710938 111.101562 264.859375 111.207031 C 264.804688 111.207031 264.804688 111.207031 264.753906 111.207031 C 264.648438 111.207031 264.542969 111.207031 264.4375 111.207031 C 264.226562 111.207031 264.011719 111.207031 263.855469 111.261719 C 262.902344 111.3125 261.953125 111.367188 261 111.417969 C 258.148438 111.527344 255.292969 111.632812 252.386719 111.683594 C 249.480469 111.738281 246.574219 111.789062 243.71875 111.84375 C 237.800781 111.894531 231.828125 111.894531 225.90625 111.949219 C 220.09375 111.949219 214.226562 112 208.414062 112 C 202.285156 112 196.152344 111.949219 189.96875 111.894531 C 184.207031 111.84375 178.394531 111.738281 172.632812 111.683594 C 172.316406 111.683594 171.945312 111.683594 171.628906 111.683594 C 171.628906 111.683594 171.628906 111.683594 171.628906 111.632812 C 171.683594 109.199219 171.734375 106.769531 171.789062 104.335938 C 171.839844 101.855469 171.894531 99.371094 172 96.886719 C 172.105469 94.402344 172.210938 91.96875 172.316406 89.488281 C 172.421875 86.949219 172.527344 84.464844 172.632812 81.929688 C 172.6875 79.390625 172.738281 76.90625 172.738281 74.371094 C 172.738281 73.101562 172.738281 71.886719 172.6875 70.617188 C 172.6875 70.039062 172.632812 69.402344 172.632812 68.820312 C 172.632812 68.714844 172.632812 68.558594 172.632812 68.453125 C 174.90625 68.453125 177.230469 68.453125 179.503906 68.398438 C 191.449219 68.292969 203.394531 68.027344 215.335938 67.921875 C 221.363281 67.871094 227.335938 67.871094 233.359375 67.921875 C 236.320312 67.921875 239.226562 67.976562 242.1875 68.082031 C 245.039062 68.1875 247.945312 68.292969 250.800781 68.503906 C 252.863281 68.664062 254.921875 68.820312 256.984375 69.03125 C 257.988281 69.140625 258.941406 69.246094 259.945312 69.402344 C 260.949219 69.5625 262.003906 69.773438 263.007812 69.929688 C 263.960938 70.144531 264.859375 70.355469 265.757812 70.617188 C 266.550781 70.828125 267.394531 71.09375 268.1875 71.359375 C 268.664062 71.515625 269.085938 71.726562 269.5625 71.886719 C 270.039062 72.097656 270.515625 72.308594 270.9375 72.519531 C 271.359375 72.734375 271.78125 72.945312 272.207031 73.207031 C 272.574219 73.417969 273 73.683594 273.367188 73.894531 C 273.632812 74.054688 273.898438 74.265625 274.109375 74.476562 C 274.320312 74.636719 274.476562 74.792969 274.691406 74.953125 C 275.007812 75.269531 275.324219 75.585938 275.640625 75.902344 C 275.90625 76.222656 276.167969 76.539062 276.382812 76.90625 C 276.75 77.488281 277.066406 78.019531 277.386719 78.652344 C 277.597656 79.074219 277.808594 79.496094 277.964844 79.921875 C 278.125 80.34375 278.335938 80.820312 278.441406 81.242188 C 278.8125 82.351562 279.078125 83.515625 279.339844 84.625 C 280.082031 88.21875 280.503906 91.863281 280.765625 95.511719 C 280.875 97.835938 280.980469 100.109375 280.820312 102.382812 Z M 99.539062 52.226562 C 99.539062 52.226562 99.539062 52.171875 99.539062 52.226562 C 99.488281 52.171875 99.488281 52.171875 99.539062 52.226562 C 99.539062 52.171875 99.539062 52.226562 99.539062 52.226562 Z M 99.539062 52.226562 " fill-opacity="1" fill-rule="nonzero"/></g></g></g></svg>